<?xml version="1.0" encoding="UTF-8" standalone="no"?>
<svg
   xmlns:dc="http://purl.org/dc/elements/1.1/"
   xmlns:cc="http://creativecommons.org/ns#"
   xmlns:rdf="http://www.w3.org/1999/02/22-rdf-syntax-ns#"
   xmlns:svg="http://www.w3.org/2000/svg"
   xmlns="http://www.w3.org/2000/svg"
   xmlns:sodipodi="http://sodipodi.sourceforge.net/DTD/sodipodi-0.dtd"
   xmlns:inkscape="http://www.inkscape.org/namespaces/inkscape"
   width="20.264584mm"
   height="128.76459mm"
   viewBox="0 0 20.264584 128.76459"
   version="1.1"
   id="svg8"
   inkscape:version="1.0.2 (e86c870879, 2021-01-15)"
   sodipodi:docname="the-count-print.svg">
  <defs
     id="defs2">
    <marker
       id="DistanceX"
       orient="auto"
       refX="0"
       refY="0"
       style="overflow:visible">
      <path
         d="M 3,-3 -3,3 M 0,-5 V 5"
         style="stroke:#000000;stroke-width:0.5"
         id="path938" />
    </marker>
    <pattern
       id="Hatch"
       patternUnits="userSpaceOnUse"
       width="8"
       height="8"
       x="0"
       y="0">
      <path
         d="M8 4 l-4,4"
         stroke="#000000"
         stroke-width="0.25"
         linecap="square"
         id="path941" />
      <path
         d="M6 2 l-4,4"
         stroke="#000000"
         stroke-width="0.25"
         linecap="square"
         id="path943" />
      <path
         d="M4 0 l-4,4"
         stroke="#000000"
         stroke-width="0.25"
         linecap="square"
         id="path945" />
    </pattern>
    <symbol
       id="*MODEL_SPACE" />
    <symbol
       id="*PAPER_SPACE" />
  </defs>
  <sodipodi:namedview
     id="base"
     pagecolor="#ffffff"
     bordercolor="#666666"
     borderopacity="1.0"
     inkscape:pageopacity="0.0"
     inkscape:pageshadow="2"
     inkscape:zoom="5.6"
     inkscape:cx="-41.852955"
     inkscape:cy="57.994057"
     inkscape:document-units="mm"
     inkscape:current-layer="layer2"
     inkscape:document-rotation="0"
     showgrid="false"
     fit-margin-top="0"
     fit-margin-left="0"
     fit-margin-right="0"
     fit-margin-bottom="0" />
  <metadata
     id="metadata5">
    <rdf:RDF>
      <cc:Work
         rdf:about="">
        <dc:format>image/svg+xml</dc:format>
        <dc:type
           rdf:resource="http://purl.org/dc/dcmitype/StillImage" />
        <dc:title />
      </cc:Work>
    </rdf:RDF>
  </metadata>
  <g
     inkscape:label="Outline"
     inkscape:groupmode="layer"
     id="layer1"
     transform="translate(-39.271485,-17.286975)"
     style="display:inline">
    <g
       inkscape:label="0"
       id="g952"
       style="fill:none;fill-opacity:1;stroke:#29bee6;stroke-opacity:1"
       transform="matrix(0.26458333,0,0,0.26458333,39.403777,-151.08073)" />
    <g
       inkscape:label="none"
       id="g954"
       style="fill:none;fill-opacity:1;stroke:#29bee6;stroke-opacity:1"
       transform="matrix(0.26458333,0,0,0.26458333,39.403777,-151.08073)" />
    <path
       d="m 39.403777,145.91927 h 20"
       style="fill:none;fill-opacity:1;stroke:#29bee6;stroke-width:0.264583;stroke-opacity:1"
       id="path956" />
    <path
       d="M 59.403775,145.91927 V 17.419267"
       style="fill:none;fill-opacity:1;stroke:#29bee6;stroke-width:0.264583;stroke-opacity:1"
       id="path958" />
    <path
       d="m 59.403777,17.419267 h -20"
       style="fill:none;fill-opacity:1;stroke:#29bee6;stroke-width:0.264583;stroke-opacity:1"
       id="path960" />
    <path
       d="M 39.403777,17.419267 V 145.91927"
       style="fill:none;fill-opacity:1;stroke:#29bee6;stroke-width:0.264583;stroke-opacity:1"
       id="path962" />
    <path
       d="m 46.403777,141.31928 a 1.6,1.6 0 0 0 0,3.19997"
       style="fill:none;fill-opacity:1;stroke:#29bee6;stroke-width:0.264583;stroke-opacity:1"
       id="path964" />
    <path
       d="m 46.403777,144.51925 h 1"
       style="fill:none;fill-opacity:1;stroke:#29bee6;stroke-width:0.264583;stroke-opacity:1"
       id="path966" />
    <path
       d="m 47.403777,144.51925 a 1.6,1.6 0 0 0 0,-3.19997"
       style="fill:none;fill-opacity:1;stroke:#29bee6;stroke-width:0.264583;stroke-opacity:1"
       id="path968" />
    <path
       d="m 46.403777,141.31928 h 1"
       style="fill:none;fill-opacity:1;stroke:#29bee6;stroke-width:0.264583;stroke-opacity:1"
       id="path970" />
    <path
       d="m 51.403777,18.819267 a 1.6000005,1.6000005 0 0 0 0,3.200001"
       style="fill:none;fill-opacity:1;stroke:#29bee6;stroke-width:0.264583;stroke-opacity:1"
       id="path972" />
    <path
       d="m 51.403777,22.019268 h 1"
       style="fill:none;fill-opacity:1;stroke:#29bee6;stroke-width:0.264583;stroke-opacity:1"
       id="path974" />
    <path
       d="m 52.403777,22.019268 a 1.6000005,1.6000005 0 0 0 0,-3.200001"
       style="fill:none;fill-opacity:1;stroke:#29bee6;stroke-width:0.264583;stroke-opacity:1"
       id="path976" />
    <path
       d="m 51.403777,18.819267 h 1"
       style="fill:none;fill-opacity:1;stroke:#29bee6;stroke-width:0.264583;stroke-opacity:1"
       id="path978" />
    <path
       d="m 53.653777,130.91927 a 4.25,4.25 0 1 0 -8.5,0 4.2500002,4.2500002 0 1 0 8.5,0 z"
       style="fill:none;fill-opacity:1;stroke:#29bee6;stroke-width:0.264583;stroke-opacity:1"
       id="path980" />
    <path
       d="m 57.831977,126.91928 a 1.5,1.5 0 1 0 -3,0 1.5,1.5 0 1 0 3,0 z"
       style="fill:none;fill-opacity:1;stroke:#29bee6;stroke-width:0.264583;stroke-opacity:1"
       id="path982" />
    <path
       d="m 53.653777,116.84785 a 4.25,4.25 0 1 0 -8.5,0 4.2500002,4.2500002 0 1 0 8.5,0 z"
       style="fill:none;fill-opacity:1;stroke:#29bee6;stroke-width:0.264583;stroke-opacity:1"
       id="path984" />
    <path
       d="m 53.653777,102.77637 a 4.25,4.25 0 1 0 -8.5,0 4.2500002,4.2500002 0 1 0 8.5,0 z"
       style="fill:none;fill-opacity:1;stroke:#29bee6;stroke-width:0.264583;stroke-opacity:1"
       id="path986" />
    <path
       d="m 53.653777,88.704966 a 4.25,4.25 0 1 0 -8.5,0 4.2500002,4.2500002 0 1 0 8.5,0 z"
       style="fill:none;fill-opacity:1;stroke:#29bee6;stroke-width:0.264583;stroke-opacity:1"
       id="path988" />
    <path
       d="m 53.653777,74.633567 a 4.25,4.25 0 1 0 -8.5,0 4.2500002,4.2500002 0 1 0 8.5,0 z"
       style="fill:none;fill-opacity:1;stroke:#29bee6;stroke-width:0.264583;stroke-opacity:1"
       id="path990" />
    <path
       d="m 53.653777,60.562167 a 4.25,4.25 0 1 0 -8.5,0 4.2500002,4.2500002 0 1 0 8.5,0 z"
       style="fill:none;fill-opacity:1;stroke:#29bee6;stroke-width:0.264583;stroke-opacity:1"
       id="path992" />
    <path
       d="m 53.653777,46.490666 a 4.25,4.25 0 1 0 -8.5,0 4.2500002,4.2500002 0 1 0 8.5,0 z"
       style="fill:none;fill-opacity:1;stroke:#29bee6;stroke-width:0.264583;stroke-opacity:1"
       id="path994" />
    <path
       d="m 53.653777,32.419268 a 4.25,4.25 0 1 0 -8.5,0 4.2500002,4.2500002 0 1 0 8.5,0 z"
       style="fill:none;fill-opacity:1;stroke:#29bee6;stroke-width:0.264583;stroke-opacity:1"
       id="path996" />
    <path
       d="m 57.831977,112.84787 a 1.5,1.5 0 1 0 -3,0 1.5,1.5 0 1 0 3,0 z"
       style="fill:none;fill-opacity:1;stroke:#29bee6;stroke-width:0.264583;stroke-opacity:1"
       id="path998" />
    <path
       d="m 57.831977,98.776368 a 1.5,1.5 0 1 0 -3,0 1.5,1.5 0 1 0 3,0 z"
       style="fill:none;fill-opacity:1;stroke:#29bee6;stroke-width:0.264583;stroke-opacity:1"
       id="path1000" />
    <path
       d="m 57.831977,84.704967 a 1.5,1.5 0 1 0 -3,0 1.5,1.5 0 1 0 3,0 z"
       style="fill:none;fill-opacity:1;stroke:#29bee6;stroke-width:0.264583;stroke-opacity:1"
       id="path1002" />
    <path
       d="m 57.831977,70.633568 a 1.5,1.5 0 1 0 -3,0 1.5,1.5 0 1 0 3,0 z"
       style="fill:none;fill-opacity:1;stroke:#29bee6;stroke-width:0.264583;stroke-opacity:1"
       id="path1004" />
    <path
       d="m 57.831977,56.562167 a 1.5,1.5 0 1 0 -3,0 1.5,1.5 0 1 0 3,0 z"
       style="fill:none;fill-opacity:1;stroke:#29bee6;stroke-width:0.264583;stroke-opacity:1"
       id="path1006" />
    <path
       d="m 57.831977,42.490268 a 1.5,1.5 0 1 0 -3,0 1.5,1.5 0 1 0 3,0 z"
       style="fill:none;fill-opacity:1;stroke:#29bee6;stroke-width:0.264583;stroke-opacity:1"
       id="path1008" />
    <path
       d="m 57.831977,28.419269 a 1.5,1.5 0 1 0 -3,0 1.5,1.5 0 1 0 3,0 z"
       style="fill:none;fill-opacity:1;stroke:#29bee6;stroke-width:0.264583;stroke-opacity:1"
       id="path1010" />
  </g>
  <g
     inkscape:groupmode="layer"
     id="layer2"
     inkscape:label="Print">
    <g
       id="g2083"
       transform="translate(0,-1.5875)">
      <circle
         style="display:inline;fill:#000000;fill-opacity:1;stroke:#000000;stroke-width:0.0999999;stroke-miterlimit:4;stroke-dasharray:none;stroke-dashoffset:0.945;stroke-opacity:1"
         id="path1147"
         cx="1.2871317"
         cy="11.132295"
         r="0.44999999" />
      <circle
         style="display:inline;fill:#000000;fill-opacity:1;stroke:#000000;stroke-width:0.0999999;stroke-miterlimit:4;stroke-dasharray:none;stroke-dashoffset:0.945;stroke-opacity:1"
         id="circle1149"
         cx="4.6338964"
         cy="11.132295"
         r="0.44999999" />
      <g
         id="g1184"
         transform="matrix(0.63661754,0,0,1,-24.301372,-16.15033)"
         style="display:inline;stroke-width:1.25332">
        <path
           style="fill:none;stroke:#000000;stroke-width:0.331606px;stroke-linecap:butt;stroke-linejoin:miter;stroke-opacity:1"
           d="m 41.095669,26.778338 c 1.287222,-1.090905 2.058955,-1.098821 3.025719,-0.294761"
           id="path1153"
           sodipodi:nodetypes="cc" />
        <path
           style="fill:#000000;fill-opacity:1;stroke:#000000;stroke-width:0.331606px;stroke-linecap:butt;stroke-linejoin:miter;stroke-opacity:1"
           d="m 44.25122,26.189271 -0.418082,0.419041 0.477028,0.06668 z"
           id="path1155"
           sodipodi:nodetypes="cccc" />
      </g>
    </g>
    <g
       id="g1208"
       style="display:inline"
       transform="translate(-39.812962,-18.874476)">
      <circle
         style="fill:#000000;fill-opacity:1;stroke:#000000;stroke-width:0.0999999;stroke-miterlimit:4;stroke-dasharray:none;stroke-dashoffset:0.945;stroke-opacity:1"
         id="circle1157"
         cx="41.100094"
         cy="42.490269"
         r="0.44999999" />
      <g
         id="g1202"
         transform="matrix(0.88282265,0,0,1,4.9268006,0)"
         style="stroke-width:1.0643">
        <path
           style="fill:#000000;fill-opacity:1;stroke:#000000;stroke-width:0.281595px;stroke-linecap:butt;stroke-linejoin:miter;stroke-opacity:1"
           d="m 42.429373,42.782319 0.0021,-0.591932 -0.385801,0.288374 z"
           id="path1161"
           sodipodi:nodetypes="cccc" />
        <path
           style="fill:none;stroke:#000000;stroke-width:0.281595px;stroke-linecap:butt;stroke-linejoin:miter;stroke-opacity:1"
           d="m 42.511364,42.490269 h 2.15269"
           id="path1165"
           sodipodi:nodetypes="cc" />
      </g>
    </g>
    <path
       style="display:inline;fill:none;stroke:#000000;stroke-width:0.3;stroke-linecap:butt;stroke-linejoin:miter;stroke-miterlimit:4;stroke-dasharray:none;stroke-opacity:1"
       d="M 40.487239,53.527069 H 58.320315"
       id="path1190"
       transform="translate(-39.271485,-17.286975)" />
    <path
       style="display:inline;fill:none;stroke:#000000;stroke-width:0.3;stroke-linecap:butt;stroke-linejoin:miter;stroke-miterlimit:4;stroke-dasharray:none;stroke-opacity:1"
       d="M 40.487238,67.598517 H 58.320314"
       id="path1210"
       transform="translate(-39.271485,-17.286975)" />
    <path
       style="display:inline;fill:none;stroke:#000000;stroke-width:0.3;stroke-linecap:butt;stroke-linejoin:miter;stroke-miterlimit:4;stroke-dasharray:none;stroke-opacity:1"
       d="M 40.487238,81.669917 H 58.320314"
       id="path1212"
       transform="translate(-39.271485,-17.286975)" />
    <path
       style="display:inline;fill:none;stroke:#000000;stroke-width:0.3;stroke-linecap:butt;stroke-linejoin:miter;stroke-miterlimit:4;stroke-dasharray:none;stroke-opacity:1"
       d="M 40.487238,95.74132 H 58.320314"
       id="path1214"
       transform="translate(-39.271485,-17.286975)" />
    <path
       style="display:inline;fill:none;stroke:#000000;stroke-width:0.3;stroke-linecap:butt;stroke-linejoin:miter;stroke-miterlimit:4;stroke-dasharray:none;stroke-opacity:1"
       d="M 40.487238,109.81276 H 58.320314"
       id="path1216"
       transform="translate(-39.271485,-17.286975)" />
    <path
       style="display:inline;fill:none;stroke:#000000;stroke-width:0.3;stroke-linecap:butt;stroke-linejoin:miter;stroke-miterlimit:4;stroke-dasharray:none;stroke-opacity:1"
       d="M 40.487238,123.88421 H 58.320314"
       id="path1218"
       transform="translate(-39.271485,-17.286975)" />
  </g>
</svg>
