<?xml version="1.0" encoding="UTF-8" standalone="no"?>
<svg
   xmlns:dc="http://purl.org/dc/elements/1.1/"
   xmlns:cc="http://creativecommons.org/ns#"
   xmlns:rdf="http://www.w3.org/1999/02/22-rdf-syntax-ns#"
   xmlns:svg="http://www.w3.org/2000/svg"
   xmlns="http://www.w3.org/2000/svg"
   xmlns:sodipodi="http://sodipodi.sourceforge.net/DTD/sodipodi-0.dtd"
   xmlns:inkscape="http://www.inkscape.org/namespaces/inkscape"
   version="1.1"
   width="297.0022mm"
   height="210.0072mm"
   viewBox="0.0000 0.0000 297.0022 210.0072"
   id="svg936"
   sodipodi:docname="div-frontpanel-labels.svg"
   inkscape:version="1.0.2 (e86c870879, 2021-01-15)"
   inkscape:export-filename="/home/tux/moPsy/Modules/div/Doc/User Manual/div-frontpanel-labels.png"
   inkscape:export-xdpi="359.98138"
   inkscape:export-ydpi="359.98138">
  <metadata
     id="metadata942">
    <rdf:RDF>
      <cc:Work
         rdf:about="">
        <dc:format>image/svg+xml</dc:format>
        <dc:type
           rdf:resource="http://purl.org/dc/dcmitype/StillImage" />
        <dc:title>SVG Image created as div-pcb-leds-F_Silkscreen.svg date 2023/06/06 21:19:02 </dc:title>
      </cc:Work>
    </rdf:RDF>
  </metadata>
  <defs
     id="defs940">
    <marker
       style="overflow:visible;"
       id="marker2649"
       refX="0.0"
       refY="0.0"
       orient="auto"
       inkscape:stockid="Arrow2Mend"
       inkscape:isstock="true">
      <path
         transform="scale(0.6) rotate(180) translate(0,0)"
         d="M 8.7185878,4.0337352 L -2.2072895,0.016013256 L 8.7185884,-4.0017078 C 6.9730900,-1.6296469 6.9831476,1.6157441 8.7185878,4.0337352 z "
         style="fill-rule:evenodd;stroke-width:0.625;stroke-linejoin:round;stroke:#ff0000;stroke-opacity:1;fill:#ff0000;fill-opacity:1"
         id="path2647" />
    </marker>
    <marker
       style="overflow:visible"
       id="Arrow2Mstart"
       refX="0.0"
       refY="0.0"
       orient="auto"
       inkscape:stockid="Arrow2Mstart"
       inkscape:isstock="true">
      <path
         transform="scale(0.6) translate(0,0)"
         d="M 8.7185878,4.0337352 L -2.2072895,0.016013256 L 8.7185884,-4.0017078 C 6.9730900,-1.6296469 6.9831476,1.6157441 8.7185878,4.0337352 z "
         style="fill-rule:evenodd;stroke-width:0.625;stroke-linejoin:round;stroke:#ff0000;stroke-opacity:1;fill:#ff0000;fill-opacity:1"
         id="path1955" />
    </marker>
    <marker
       style="overflow:visible"
       id="Arrow2Lstart"
       refX="0.0"
       refY="0.0"
       orient="auto"
       inkscape:stockid="Arrow2Lstart"
       inkscape:isstock="true">
      <path
         transform="scale(1.1) translate(1,0)"
         d="M 8.7185878,4.0337352 L -2.2072895,0.016013256 L 8.7185884,-4.0017078 C 6.9730900,-1.6296469 6.9831476,1.6157441 8.7185878,4.0337352 z "
         style="fill-rule:evenodd;stroke-width:0.625;stroke-linejoin:round;stroke:#ff0000;stroke-opacity:1;fill:#ff0000;fill-opacity:1"
         id="path1949" />
    </marker>
    <marker
       style="overflow:visible;"
       id="Arrow1Send"
       refX="0.0"
       refY="0.0"
       orient="auto"
       inkscape:stockid="Arrow1Send"
       inkscape:isstock="true">
      <path
         transform="scale(0.2) rotate(180) translate(6,0)"
         style="fill-rule:evenodd;stroke:#ff0000;stroke-width:1pt;stroke-opacity:1;fill:#ff0000;fill-opacity:1"
         d="M 0.0,0.0 L 5.0,-5.0 L -12.5,0.0 L 5.0,5.0 L 0.0,0.0 z "
         id="path1946" />
    </marker>
    <marker
       style="overflow:visible;"
       id="Arrow2Send"
       refX="0.0"
       refY="0.0"
       orient="auto"
       inkscape:stockid="Arrow2Send"
       inkscape:isstock="true">
      <path
         transform="scale(0.3) rotate(180) translate(-2.3,0)"
         d="M 8.7185878,4.0337352 L -2.2072895,0.016013256 L 8.7185884,-4.0017078 C 6.9730900,-1.6296469 6.9831476,1.6157441 8.7185878,4.0337352 z "
         style="fill-rule:evenodd;stroke-width:0.625;stroke-linejoin:round;stroke:#ff0000;stroke-opacity:1;fill:#ff0000;fill-opacity:1"
         id="path1964" />
    </marker>
    <marker
       style="overflow:visible;"
       id="Arrow2Mend"
       refX="0.0"
       refY="0.0"
       orient="auto"
       inkscape:stockid="Arrow2Mend"
       inkscape:isstock="true">
      <path
         transform="scale(0.6) rotate(180) translate(0,0)"
         d="M 8.7185878,4.0337352 L -2.2072895,0.016013256 L 8.7185884,-4.0017078 C 6.9730900,-1.6296469 6.9831476,1.6157441 8.7185878,4.0337352 z "
         style="fill-rule:evenodd;stroke-width:0.625;stroke-linejoin:round;stroke:#ff0000;stroke-opacity:1;fill:#ff0000;fill-opacity:1"
         id="path1958" />
    </marker>
    <marker
       style="overflow:visible;"
       id="Arrow2Lend"
       refX="0.0"
       refY="0.0"
       orient="auto"
       inkscape:stockid="Arrow2Lend"
       inkscape:isstock="true">
      <path
         transform="scale(1.1) rotate(180) translate(1,0)"
         d="M 8.7185878,4.0337352 L -2.2072895,0.016013256 L 8.7185884,-4.0017078 C 6.9730900,-1.6296469 6.9831476,1.6157441 8.7185878,4.0337352 z "
         style="fill-rule:evenodd;stroke-width:0.625;stroke-linejoin:round;stroke:#ff0000;stroke-opacity:1;fill:#ff0000;fill-opacity:1"
         id="path1952" />
    </marker>
    <marker
       style="overflow:visible;"
       id="Arrow1Mend"
       refX="0.0"
       refY="0.0"
       orient="auto"
       inkscape:stockid="Arrow1Mend"
       inkscape:isstock="true">
      <path
         transform="scale(0.4) rotate(180) translate(10,0)"
         style="fill-rule:evenodd;stroke:#ff0000;stroke-width:1pt;stroke-opacity:1;fill:#ff0000;fill-opacity:1"
         d="M 0.0,0.0 L 5.0,-5.0 L -12.5,0.0 L 5.0,5.0 L 0.0,0.0 z "
         id="path1940" />
    </marker>
    <marker
       style="overflow:visible;"
       id="Arrow1Lend"
       refX="0.0"
       refY="0.0"
       orient="auto"
       inkscape:stockid="Arrow1Lend"
       inkscape:isstock="true">
      <path
         transform="scale(0.8) rotate(180) translate(12.5,0)"
         style="fill-rule:evenodd;stroke:#ff0000;stroke-width:1pt;stroke-opacity:1;fill:#ff0000;fill-opacity:1"
         d="M 0.0,0.0 L 5.0,-5.0 L -12.5,0.0 L 5.0,5.0 L 0.0,0.0 z "
         id="path1934" />
    </marker>
  </defs>
  <sodipodi:namedview
     pagecolor="#ffffff"
     bordercolor="#666666"
     borderopacity="1"
     objecttolerance="10"
     gridtolerance="10"
     guidetolerance="10"
     inkscape:pageopacity="0"
     inkscape:pageshadow="2"
     inkscape:window-width="640"
     inkscape:window-height="480"
     id="namedview938"
     showgrid="false"
     inkscape:zoom="2.3233274"
     inkscape:cx="303.07722"
     inkscape:cy="373.11006"
     inkscape:current-layer="svg936" />
  <title
     id="title2">SVG Image created as div-pcb-leds-F_Silkscreen.svg date 2023/06/06 21:19:02 </title>
  <desc
     id="desc4">Image generated by PCBNEW </desc>
  <g
     style="fill:#000000; fill-opacity:1.0000;stroke:#000000; stroke-opacity:1.0000; stroke-linecap:round; stroke-linejoin:round;"
     transform="translate(0 0) scale(1 1)"
     id="g6" />
  <g
     style="fill:#000000; fill-opacity:0.0;  stroke:#000000; stroke-width:0.0000; stroke-opacity:1;  stroke-linecap:round; stroke-linejoin:round;"
     id="g8" />
  <g
     style="fill:#000000; fill-opacity:0.0;  stroke:#000000; stroke-width:0.1426; stroke-opacity:1;  stroke-linecap:round; stroke-linejoin:round;"
     id="g28">
    <path
       d="M117.3354 158.9462 L117.3561 158.9459 "
       id="path10" />
    <path
       d="M117.0818 159.0068 L117.1184 158.9910 "
       id="path12" />
    <path
       d="M116.9191 159.1176 L116.9337 159.1043 "
       id="path14" />
    <path
       d="M123.8517 160.0033 L123.8828 159.9791 "
       id="path16" />
    <path
       d="M123.9532 159.1604 L123.9400 159.1457 "
       id="path18" />
    <path
       d="M123.5573 160.1194 L123.5975 160.1130 "
       id="path20" />
    <path
       d="M123.4753 160.1246 L123.5166 160.1233 "
       id="path22" />
    <path
       d="M116.7381 159.5734 L116.7368 159.5352 "
       id="path24" />
    <path
       d="M117.1560 158.9775 L117.1945 158.9663 "
       id="path26" />
  </g>
  <g
     style="fill:#000000; fill-opacity:0.0;  stroke:#000000; stroke-width:0.1426; stroke-opacity:1;  stroke-linecap:round; stroke-linejoin:round;"
     id="g42">
    <path
       d="M123.8190 160.0255 L123.8517 160.0033 "
       id="path34" />
    <path
       d="M123.8190 159.0450 L123.7850 159.0249 "
       id="path36" />
    <path
       d="M124.0010 159.2237 L123.9898 159.2072 "
       id="path38" />
    <path
       d="M116.8198 159.2406 L116.8304 159.2237 "
       id="path40" />
  </g>
  <g
     style="fill:#000000; fill-opacity:0.0;  stroke:#000000; stroke-width:0.1000; stroke-opacity:1;  stroke-linecap:round; stroke-linejoin:round;"
     id="g44" />
  <g
     style="fill:#000000; fill-opacity:1.0000;  stroke:#000000; stroke-width:0.1426; stroke-opacity:1;  stroke-linecap:round; stroke-linejoin:round;"
     id="g50" />
  <g
     style="fill:#000000; fill-opacity:0.0;  stroke:#000000; stroke-width:0.1426; stroke-opacity:1;  stroke-linecap:round; stroke-linejoin:round;"
     id="g58">
    <path
       d="M116.8655 159.8949 L116.8416 159.8633 "
       id="path52" />
    <path
       d="M116.9050 159.1314 L116.9191 159.1176 "
       id="path54" />
    <path
       d="M116.7381 159.4971 L116.7420 159.4591 "
       id="path56" />
  </g>
  <g
     style="fill:#000000; fill-opacity:0.0;  stroke:#000000; stroke-width:0.1013; stroke-opacity:1;  stroke-linecap:round; stroke-linejoin:round;"
     id="g60" />
  <g
     style="fill:#000000; fill-opacity:1.0000;  stroke:#000000; stroke-width:0.1013; stroke-opacity:1;  stroke-linecap:round; stroke-linejoin:round;"
     id="g64">
    <path
       style="fill:#000000; fill-opacity:1.0000;  stroke:#000000; stroke-width:0.1013; stroke-opacity:1;  stroke-linecap:round; stroke-linejoin:round;fill-rule:evenodd;"
       d="M 123.4246,158.9665 117.4063,158.9665 117.4063,158.9252 123.4246,158.9252 Z"
       id="path62" />
  </g>
  <g
     style="fill:#000000; fill-opacity:1.0000;  stroke:#000000; stroke-width:0.1426; stroke-opacity:1;  stroke-linecap:round; stroke-linejoin:round;"
     id="g66" />
  <g
     style="fill:#000000; fill-opacity:0.0;  stroke:#000000; stroke-width:0.1426; stroke-opacity:1;  stroke-linecap:round; stroke-linejoin:round;"
     id="g78">
    <path
       d="M124.0933 159.4971 L124.0895 159.4591 "
       id="path68" />
    <path
       d="M117.2141 158.9616 L117.2339 158.9575 "
       id="path70" />
    <path
       d="M116.8655 159.1755 L116.8782 159.1604 "
       id="path72" />
    <path
       d="M116.9798 160.0033 L116.9486 159.9791 "
       id="path74" />
    <path
       d="M123.9659 159.8949 L123.9898 159.8633 "
       id="path76" />
  </g>
  <g
     style="fill:#000000; fill-opacity:0.0;  stroke:#000000; stroke-width:0.1426; stroke-opacity:1;  stroke-linecap:round; stroke-linejoin:round;"
     id="g90">
    <path
       d="M123.7131 158.9911 L123.6755 158.9775 "
       id="path84" />
    <path
       d="M124.0117 159.8299 L124.0311 159.7953 "
       id="path86" />
    <path
       d="M116.9486 159.9791 L116.9191 159.9529 "
       id="path88" />
  </g>
  <g
     style="fill:#000000; fill-opacity:0.0;  stroke:#000000; stroke-width:0.1013; stroke-opacity:1;  stroke-linecap:round; stroke-linejoin:round;"
     id="g92" />
  <g
     style="fill:#000000; fill-opacity:1.0000;  stroke:#000000; stroke-width:0.1013; stroke-opacity:1;  stroke-linecap:round; stroke-linejoin:round;"
     id="g96">
    <path
       style="fill:#000000; fill-opacity:1.0000;  stroke:#000000; stroke-width:0.1013; stroke-opacity:1;  stroke-linecap:round; stroke-linejoin:round;fill-rule:evenodd;"
       d="M 123.4247,160.1453 117.4070,160.1453 117.4070,160.1039 123.4247,160.1039 Z"
       id="path94" />
  </g>
  <g
     style="fill:#000000; fill-opacity:1.0000;  stroke:#000000; stroke-width:0.1426; stroke-opacity:1;  stroke-linecap:round; stroke-linejoin:round;"
     id="g98" />
  <g
     style="fill:#000000; fill-opacity:0.0;  stroke:#000000; stroke-width:0.1426; stroke-opacity:1;  stroke-linecap:round; stroke-linejoin:round;"
     id="g102">
    <path
       d="M116.9640 159.0791 L116.9798 159.0672 "
       id="path100" />
  </g>
  <g
     style="fill:#000000; fill-opacity:0.0;  stroke:#000000; stroke-width:0.1426; stroke-opacity:1;  stroke-linecap:round; stroke-linejoin:round;"
     id="g112">
    <path
       d="M116.7420 159.4591 L116.7485 159.4213 "
       id="path108" />
    <path
       d="M123.8517 159.0672 L123.8190 159.0450 "
       id="path110" />
  </g>
  <g
     style="fill:#000000; fill-opacity:0.0;  stroke:#000000; stroke-width:0.1000; stroke-opacity:1;  stroke-linecap:round; stroke-linejoin:round;"
     id="g114" />
  <g
     style="fill:#000000; fill-opacity:1.0000;  stroke:#000000; stroke-width:0.1426; stroke-opacity:1;  stroke-linecap:round; stroke-linejoin:round;"
     id="g120" />
  <g
     style="fill:#000000; fill-opacity:0.0;  stroke:#000000; stroke-width:0.1426; stroke-opacity:1;  stroke-linecap:round; stroke-linejoin:round;"
     id="g130">
    <path
       d="M116.9337 159.1043 L116.9486 159.0914 "
       id="path122" />
    <path
       d="M117.1560 160.0930 L117.1184 160.0794 "
       id="path124" />
    <path
       d="M116.7835 159.7597 L116.7692 159.7234 "
       id="path126" />
    <path
       d="M116.9486 159.0914 L116.9640 159.0791 "
       id="path128" />
  </g>
  <g
     style="fill:#000000; fill-opacity:0.0;  stroke:#000000; stroke-width:0.0751; stroke-opacity:1;  stroke-linecap:round; stroke-linejoin:round;"
     id="g132" />
  <g
     style="fill:#000000; fill-opacity:1.0000;  stroke:#000000; stroke-width:0.0751; stroke-opacity:1;  stroke-linecap:round; stroke-linejoin:round;"
     id="g136">
    <path
       style="fill:#000000; fill-opacity:1.0000;  stroke:#000000; stroke-width:0.0751; stroke-opacity:1;  stroke-linecap:round; stroke-linejoin:round;fill-rule:evenodd;"
       d="M 120.4364,162.2391 120.3950,162.2391 120.3950,158.9283 120.4364,158.9283 Z"
       id="path134" />
  </g>
  <g
     style="fill:#000000; fill-opacity:1.0000;  stroke:#000000; stroke-width:0.1426; stroke-opacity:1;  stroke-linecap:round; stroke-linejoin:round;"
     id="g138" />
  <g
     style="fill:#000000; fill-opacity:0.0;  stroke:#000000; stroke-width:0.1426; stroke-opacity:1;  stroke-linecap:round; stroke-linejoin:round;"
     id="g144">
    <path
       d="M116.7835 159.3108 L116.8003 159.2752 "
       id="path140" />
    <path
       d="M124.0830 159.4213 L124.0739 159.3840 "
       id="path142" />
  </g>
  <g
     style="fill:#000000; fill-opacity:0.0;  stroke:#000000; stroke-width:0.1426; stroke-opacity:1;  stroke-linecap:round; stroke-linejoin:round;"
     id="g162">
    <path
       d="M117.0818 160.0636 L117.0465 160.0456 "
       id="path156" />
    <path
       d="M116.8416 159.2072 L116.8533 159.1912 "
       id="path158" />
    <path
       d="M124.0946 159.5353 L124.0933 159.4971 "
       id="path160" />
  </g>
  <g
     style="fill:#000000; fill-opacity:0.0;  stroke:#000000; stroke-width:0.1426; stroke-opacity:1;  stroke-linecap:round; stroke-linejoin:round;"
     id="g170">
    <path
       d="M117.3561 160.1246 L117.3149 160.1233 "
       id="path168" />
  </g>
  <g
     style="fill:#000000; fill-opacity:0.0;  stroke:#000000; stroke-width:0.1426; stroke-opacity:1;  stroke-linecap:round; stroke-linejoin:round;"
     id="g188">
    <path
       d="M123.5775 158.9540 L123.5573 158.9511 "
       id="path176" />
    <path
       d="M123.6755 160.0930 L123.7131 160.0794 "
       id="path178" />
    <path
       d="M123.6369 160.1042 L123.6755 160.0930 "
       id="path180" />
    <path
       d="M123.7850 160.0456 L123.8190 160.0255 "
       id="path182" />
    <path
       d="M123.8828 159.0914 L123.8674 159.0791 "
       id="path184" />
    <path
       d="M116.7368 159.5352 L116.7381 159.4971 "
       id="path186" />
  </g>
  <g
     style="fill:#000000; fill-opacity:0.0;  stroke:#000000; stroke-width:0.0330; stroke-opacity:1;  stroke-linecap:round; stroke-linejoin:round;"
     id="g194" />
  <g
     style="fill:#000000; fill-opacity:1.0000;  stroke:#000000; stroke-width:0.0330; stroke-opacity:1;  stroke-linecap:round; stroke-linejoin:round;"
     id="g198">
    <path
       style="fill:#000000; fill-opacity:1.0000;  stroke:#000000; stroke-width:0.0330; stroke-opacity:1;  stroke-linecap:round; stroke-linejoin:round;fill-rule:evenodd;"
       d="M 123.1585,160.3273 123.1597,160.3292 123.1626,160.3370 123.1661,160.3499 123.1701,160.3679 123.1747,160.3911 123.1798,160.4195 123.1918,160.4917 123.1985,160.5432 123.2048,160.5904 123.2109,160.6333 123.2165,160.6719 123.2362,160.8015 123.2361,160.8013 123.2359,160.8006 123.2356,160.7999 123.2353,160.7992 123.2351,160.7985 123.2347,160.7978 123.2344,160.7971 123.2839,161.0241 123.4064,160.3459 123.4068,160.3436 123.4070,160.3425 123.4074,160.3414 123.4077,160.3404 123.4081,160.3394 123.4085,160.3384 123.4089,160.3375 123.4094,160.3366 123.4100,160.3358 123.4105,160.3350 123.4111,160.3342 123.4118,160.3334 123.4125,160.3328 123.4132,160.3321 123.4139,160.3315 123.4147,160.3309 123.4156,160.3303 123.4164,160.3298 123.4173,160.3294 123.4183,160.3289 123.4192,160.3285 123.4203,160.3282 123.4213,160.3279 123.4235,160.3273 123.4259,160.3270 123.4284,160.3267 123.4311,160.3267 124.1382,160.3267 124.1399,160.3267 124.1415,160.3267 124.1431,160.3268 124.1447,160.3270 124.1461,160.3271 124.1476,160.3273 124.1489,160.3276 124.1502,160.3279 124.1515,160.3282 124.1527,160.3285 124.1539,160.3289 124.1550,160.3294 124.1560,160.3298 124.1570,160.3303 124.1580,160.3309 124.1588,160.3315 124.1597,160.3321 124.1605,160.3328 124.1612,160.3334 124.1618,160.3342 124.1625,160.3350 124.1630,160.3358 124.1635,160.3366 124.1640,160.3375 124.1644,160.3384 124.1647,160.3394 124.1650,160.3404 124.1653,160.3414 124.1655,160.3425 124.1656,160.3436 124.1657,160.3447 124.1657,160.3459 124.1656,160.3468 124.1654,160.3482 124.1649,160.3499 124.1643,160.3521 124.1636,160.3547 124.1626,160.3578 124.1602,160.3652 124.1459,160.3950 124.1248,160.4364 124.0970,160.4892 124.0625,160.5536 123.8534,160.9402 123.8160,161.0120 123.7794,161.0864 123.7436,161.1635 123.7087,161.2432 123.6745,161.3255 123.6412,161.4104 123.6086,161.4980 123.5769,161.5881 123.4903,162.2649 123.4895,162.2679 123.4887,162.2707 123.4877,162.2734 123.4872,162.2746 123.4867,162.2758 123.4861,162.2769 123.4855,162.2780 123.4849,162.2790 123.4842,162.2800 123.4835,162.2810 123.4828,162.2819 123.4821,162.2827 123.4813,162.2835 123.4805,162.2843 123.4797,162.2850 123.4789,162.2856 123.4780,162.2862 123.4771,162.2868 123.4762,162.2873 123.4753,162.2877 123.4743,162.2882 123.4733,162.2885 123.4723,162.2888 123.4712,162.2891 123.4701,162.2893 123.4690,162.2895 123.4679,162.2896 123.4667,162.2897 123.4655,162.2897 123.1189,162.2897 123.1174,162.2897 123.1160,162.2896 123.1146,162.2895 123.1133,162.2893 123.1120,162.2891 123.1108,162.2888 123.1096,162.2885 123.1084,162.2882 123.1073,162.2877 123.1063,162.2873 123.1052,162.2868 123.1042,162.2862 123.1033,162.2856 123.1023,162.2850 123.1015,162.2843 123.1006,162.2835 123.0998,162.2827 123.0991,162.2819 123.0984,162.2810 123.0977,162.2800 123.0970,162.2790 123.0965,162.2780 123.0959,162.2769 123.0954,162.2758 123.0949,162.2746 123.0945,162.2734 123.0941,162.2721 123.0937,162.2707 123.0931,162.2679 123.0927,162.2649 123.0597,161.9458 123.0517,161.8857 123.0401,161.8127 123.0249,161.7268 123.0061,161.6280 122.8877,161.3598 122.8436,161.2695 122.7856,161.1569 122.7136,161.0219 122.6277,160.8645 122.5856,160.7869 122.5466,160.7135 122.5106,160.6443 122.4778,160.5794 122.4481,160.5188 122.4214,160.4624 122.3978,160.4103 122.3774,160.3624 122.3767,160.3604 122.3762,160.3583 122.3757,160.3562 122.3753,160.3542 122.3750,160.3521 122.3748,160.3500 122.3747,160.3480 122.3746,160.3459 122.3747,160.3447 122.3747,160.3436 122.3748,160.3425 122.3750,160.3414 122.3752,160.3404 122.3755,160.3394 122.3758,160.3384 122.3762,160.3375 122.3766,160.3366 122.3770,160.3358 122.3776,160.3350 122.3781,160.3342 122.3787,160.3334 122.3794,160.3328 122.3801,160.3321 122.3808,160.3315 122.3816,160.3309 122.3825,160.3303 122.3834,160.3298 122.3843,160.3294 122.3853,160.3289 122.3863,160.3285 122.3874,160.3282 122.3886,160.3279 122.3910,160.3273 122.3936,160.3270 122.3964,160.3267 122.3994,160.3267 123.1574,160.3267 Z"
       id="path196" />
  </g>
  <g
     style="fill:#000000; fill-opacity:1.0000;  stroke:#000000; stroke-width:0.1426; stroke-opacity:1;  stroke-linecap:round; stroke-linejoin:round;"
     id="g200" />
  <g
     style="fill:#000000; fill-opacity:0.0;  stroke:#000000; stroke-width:0.1426; stroke-opacity:1;  stroke-linecap:round; stroke-linejoin:round;"
     id="g210">
    <path
       d="M123.5975 160.1130 L123.6369 160.1042 "
       id="path202" />
    <path
       d="M117.3149 160.1233 L117.2741 160.1194 "
       id="path204" />
    <path
       d="M117.0465 159.0248 L117.0818 159.0068 "
       id="path206" />
    <path
       d="M117.2339 160.1130 L117.1945 160.1042 "
       id="path208" />
  </g>
  <g
     style="fill:#000000; fill-opacity:0.0;  stroke:#000000; stroke-width:0.1426; stroke-opacity:1;  stroke-linecap:round; stroke-linejoin:round;"
     id="g220">
    <path
       d="M116.8914 159.9248 L116.8655 159.8949 "
       id="path218" />
  </g>
  <g
     style="fill:#000000; fill-opacity:0.0;  stroke:#000000; stroke-width:0.1426; stroke-opacity:1;  stroke-linecap:round; stroke-linejoin:round;"
     id="g228">
    <path
       d="M116.8782 159.1604 L116.8914 159.1457 "
       id="path226" />
  </g>
  <g
     style="fill:#000000; fill-opacity:0.0;  stroke:#000000; stroke-width:0.0330; stroke-opacity:1;  stroke-linecap:round; stroke-linejoin:round;"
     id="g230" />
  <g
     style="fill:#000000; fill-opacity:1.0000;  stroke:#000000; stroke-width:0.0330; stroke-opacity:1;  stroke-linecap:round; stroke-linejoin:round;"
     id="g234">
    <path
       style="fill:#000000; fill-opacity:1.0000;  stroke:#000000; stroke-width:0.0330; stroke-opacity:1;  stroke-linecap:round; stroke-linejoin:round;fill-rule:evenodd;"
       d="M 117.4720,160.3377 117.4729,160.3378 117.4739,160.3379 117.4748,160.3381 117.4757,160.3382 117.4766,160.3385 117.4775,160.3387 117.4784,160.3390 117.4792,160.3393 117.4800,160.3396 117.4808,160.3400 117.4815,160.3404 117.4823,160.3408 117.4830,160.3413 117.4837,160.3418 117.4844,160.3423 117.4850,160.3429 117.4857,160.3435 117.4863,160.3441 117.4869,160.3448 117.4874,160.3455 117.4880,160.3462 117.4885,160.3470 117.4890,160.3477 117.4895,160.3486 117.4900,160.3494 117.4904,160.3503 117.4912,160.3522 117.4919,160.3542 117.5107,160.4392 117.5353,160.5389 117.5657,160.6531 117.6020,160.7820 117.6095,160.7627 117.6169,160.7411 117.6241,160.7173 117.6312,160.6912 117.6382,160.6629 117.6451,160.6324 117.6518,160.5996 117.6584,160.5646 117.6652,160.5295 117.6719,160.4968 117.6785,160.4667 117.6849,160.4391 117.6912,160.4141 117.6973,160.3916 117.7034,160.3716 117.7093,160.3542 117.7097,160.3522 117.7102,160.3503 117.7105,160.3494 117.7108,160.3486 117.7112,160.3477 117.7115,160.3470 117.7119,160.3462 117.7124,160.3455 117.7128,160.3448 117.7133,160.3441 117.7138,160.3435 117.7143,160.3429 117.7149,160.3423 117.7155,160.3418 117.7161,160.3413 117.7167,160.3408 117.7174,160.3404 117.7181,160.3400 117.7188,160.3396 117.7196,160.3393 117.7204,160.3390 117.7212,160.3387 117.7220,160.3385 117.7229,160.3382 117.7237,160.3381 117.7246,160.3379 117.7265,160.3377 117.7286,160.3377 118.5085,160.3377 118.5105,160.3377 118.5124,160.3378 118.5142,160.3379 118.5159,160.3381 118.5175,160.3384 118.5191,160.3387 118.5206,160.3391 118.5220,160.3396 118.5234,160.3401 118.5247,160.3406 118.5259,160.3412 118.5271,160.3419 118.5281,160.3427 118.5291,160.3435 118.5300,160.3443 118.5309,160.3452 118.5317,160.3462 118.5324,160.3472 118.5330,160.3483 118.5336,160.3495 118.5341,160.3507 118.5345,160.3520 118.5348,160.3533 118.5351,160.3547 118.5353,160.3561 118.5354,160.3576 118.5355,160.3592 118.5355,160.3608 118.5354,160.3625 118.5352,160.3643 118.5350,160.3661 118.5347,160.3679 118.2210,162.2663 118.2206,162.2691 118.2204,162.2705 118.2201,162.2718 118.2198,162.2731 118.2194,162.2743 118.2190,162.2754 118.2186,162.2765 118.2182,162.2776 118.2177,162.2786 118.2172,162.2796 118.2167,162.2806 118.2161,162.2815 118.2155,162.2823 118.2148,162.2831 118.2142,162.2839 118.2135,162.2846 118.2127,162.2852 118.2120,162.2858 118.2112,162.2864 118.2103,162.2869 118.2095,162.2874 118.2086,162.2879 118.2076,162.2882 118.2067,162.2886 118.2057,162.2889 118.2046,162.2891 118.2036,162.2893 118.2025,162.2895 118.2014,162.2896 118.2002,162.2897 118.1990,162.2897 117.9170,162.2897 117.9120,162.2890 117.9071,162.2870 117.9024,162.2837 117.8978,162.2790 117.8935,162.2729 117.8894,162.2655 117.8854,162.2568 117.8816,162.2467 117.8780,162.2353 117.8746,162.2225 117.8713,162.2084 117.8683,162.1930 117.8654,162.1762 117.8627,162.1580 117.8579,162.1177 117.8522,162.0599 117.8462,162.0074 117.8430,161.9831 117.8398,161.9601 117.8365,161.9385 117.8331,161.9183 117.7657,161.5427 117.6323,161.8522 117.6312,161.8547 117.6301,161.8571 117.6290,161.8593 117.6278,161.8613 117.6266,161.8631 117.6253,161.8648 117.6246,161.8656 117.6240,161.8664 117.6233,161.8671 117.6226,161.8677 117.6219,161.8683 117.6212,161.8689 117.6205,161.8695 117.6198,161.8700 117.6191,161.8704 117.6183,161.8709 117.6176,161.8712 117.6168,161.8716 117.6160,161.8719 117.6152,161.8722 117.6144,161.8724 117.6136,161.8726 117.6128,161.8727 117.6120,161.8728 117.6111,161.8729 117.6103,161.8729 117.6082,161.8728 117.6072,161.8727 117.6063,161.8726 117.6053,161.8724 117.6044,161.8722 117.6034,161.8719 117.6025,161.8716 117.6016,161.8712 117.6007,161.8709 117.5999,161.8704 117.5990,161.8700 117.5982,161.8695 117.5974,161.8689 117.5966,161.8683 117.5958,161.8677 117.5943,161.8664 117.5928,161.8648 117.5915,161.8631 117.5901,161.8613 117.5889,161.8593 117.5877,161.8571 117.5866,161.8547 117.5855,161.8522 117.5636,161.7964 117.5349,161.7267 117.4996,161.6431 117.4576,161.5455 117.4412,161.5968 117.4233,161.6591 117.3822,161.8172 117.3345,162.0196 117.2801,162.2663 117.2794,162.2691 117.2786,162.2718 117.2776,162.2743 117.2772,162.2754 117.2767,162.2765 117.2761,162.2776 117.2756,162.2786 117.2750,162.2796 117.2744,162.2806 117.2738,162.2815 117.2732,162.2823 117.2725,162.2831 117.2718,162.2839 117.2711,162.2846 117.2704,162.2852 117.2697,162.2858 117.2689,162.2864 117.2681,162.2869 117.2673,162.2874 117.2665,162.2879 117.2657,162.2882 117.2648,162.2886 117.2639,162.2889 117.2630,162.2891 117.2620,162.2893 117.2611,162.2895 117.2601,162.2896 117.2591,162.2897 117.2581,162.2897 117.0022,162.2897 116.9997,162.2896 116.9985,162.2895 116.9973,162.2893 116.9961,162.2891 116.9950,162.2889 116.9939,162.2886 116.9928,162.2882 116.9918,162.2879 116.9908,162.2874 116.9898,162.2869 116.9889,162.2864 116.9880,162.2858 116.9871,162.2852 116.9862,162.2846 116.9854,162.2839 116.9846,162.2831 116.9838,162.2823 116.9831,162.2815 116.9823,162.2806 116.9817,162.2796 116.9810,162.2786 116.9804,162.2776 116.9798,162.2765 116.9787,162.2743 116.9777,162.2718 116.9768,162.2691 116.9761,162.2663 116.9341,161.9895 116.8688,161.5799 116.6666,160.3679 116.6663,160.3661 116.6660,160.3643 116.6658,160.3625 116.6657,160.3608 116.6657,160.3592 116.6658,160.3576 116.6659,160.3561 116.6660,160.3547 116.6663,160.3533 116.6666,160.3520 116.6670,160.3507 116.6675,160.3495 116.6680,160.3483 116.6686,160.3472 116.6693,160.3462 116.6700,160.3452 116.6708,160.3443 116.6717,160.3435 116.6726,160.3427 116.6737,160.3419 116.6747,160.3412 116.6759,160.3406 116.6771,160.3401 116.6784,160.3396 116.6798,160.3391 116.6812,160.3387 116.6827,160.3384 116.6843,160.3381 116.6860,160.3379 116.6877,160.3378 116.6895,160.3377 116.6913,160.3377 117.4699,160.3377 Z"
       id="path232" />
  </g>
  <g
     style="fill:#000000; fill-opacity:1.0000;  stroke:#000000; stroke-width:0.2714; stroke-opacity:1;  stroke-linecap:round; stroke-linejoin:round;"
     id="g236" />
  <g
     style="fill:#000000; fill-opacity:0.0;  stroke:#000000; stroke-width:0.1426; stroke-opacity:1;  stroke-linecap:round; stroke-linejoin:round;"
     id="g258">
    <path
       d="M123.6755 158.9775 L123.6369 158.9663 "
       id="path242" />
    <path
       d="M123.9264 159.1314 L123.9123 159.1176 "
       id="path244" />
    <path
       d="M124.0117 159.2406 L124.0010 159.2237 "
       id="path246" />
    <path
       d="M117.1184 158.9910 L117.1560 158.9775 "
       id="path248" />
    <path
       d="M123.8828 159.9791 L123.9123 159.9529 "
       id="path250" />
    <path
       d="M117.0124 159.0450 L117.0465 159.0248 "
       id="path252" />
    <path
       d="M123.9400 159.1457 L123.9264 159.1314 "
       id="path254" />
    <path
       d="M117.1945 160.1042 L117.1560 160.0930 "
       id="path256" />
  </g>
  <g
     style="fill:#000000; fill-opacity:0.0;  stroke:#000000; stroke-width:0.1426; stroke-opacity:1;  stroke-linecap:round; stroke-linejoin:round;"
     id="g270">
    <path
       d="M123.7496 160.0636 L123.7850 160.0456 "
       id="path264" />
    <path
       d="M123.8674 159.0791 L123.8517 159.0672 "
       id="path266" />
    <path
       d="M117.3149 158.9472 L117.3354 158.9462 "
       id="path268" />
  </g>
  <g
     style="fill:#000000; fill-opacity:0.0;  stroke:#000000; stroke-width:0.1426; stroke-opacity:1;  stroke-linecap:round; stroke-linejoin:round;"
     id="g294">
    <path
       d="M124.0739 159.3840 L124.0622 159.3471 "
       id="path278" />
    <path
       d="M123.6173 158.9616 L123.5975 158.9575 "
       id="path280" />
    <path
       d="M116.8198 159.8299 L116.8003 159.7953 "
       id="path282" />
    <path
       d="M123.6369 158.9663 L123.6173 158.9616 "
       id="path284" />
    <path
       d="M124.0311 159.7953 L124.0480 159.7597 "
       id="path286" />
    <path
       d="M116.9798 159.0672 L117.0124 159.0450 "
       id="path288" />
    <path
       d="M116.8304 159.2237 L116.8416 159.2072 "
       id="path290" />
    <path
       d="M116.8003 159.2752 L116.8198 159.2406 "
       id="path292" />
  </g>
  <g
     style="fill:#000000; fill-opacity:0.0;  stroke:#000000; stroke-width:0.0330; stroke-opacity:1;  stroke-linecap:round; stroke-linejoin:round;"
     id="g296" />
  <g
     style="fill:#000000; fill-opacity:1.0000;  stroke:#000000; stroke-width:0.0330; stroke-opacity:1;  stroke-linecap:round; stroke-linejoin:round;"
     id="g300">
    <path
       style="fill:#000000; fill-opacity:1.0000;  stroke:#000000; stroke-width:0.0330; stroke-opacity:1;  stroke-linecap:round; stroke-linejoin:round;fill-rule:evenodd;"
       d="M 121.5602,160.3159 121.5852,160.3167 121.6097,160.3180 121.6337,160.3199 121.6572,160.3222 121.6801,160.3251 121.7026,160.3286 121.7245,160.3325 121.7459,160.3370 121.7668,160.3420 121.7872,160.3475 121.8070,160.3536 121.8264,160.3601 121.8452,160.3673 121.8635,160.3749 121.8813,160.3831 121.8925,160.3887 121.9046,160.3953 121.9177,160.4028 121.9318,160.4113 121.9629,160.4312 121.9979,160.4549 122.0368,160.4825 122.0797,160.5138 122.1264,160.5490 122.1771,160.5880 122.2367,160.6356 122.2636,160.6579 122.2884,160.6793 122.3113,160.6996 122.3322,160.7190 122.3510,160.7374 122.3679,160.7548 122.3829,160.7713 122.3958,160.7867 122.4067,160.8012 122.4157,160.8148 122.4226,160.8273 122.4276,160.8388 122.4306,160.8494 122.4316,160.8590 122.4315,160.8607 122.4314,160.8624 122.4312,160.8640 122.4309,160.8656 122.4305,160.8671 122.4300,160.8686 122.4295,160.8700 122.4288,160.8714 122.4281,160.8728 122.4273,160.8741 122.4264,160.8753 122.4254,160.8766 122.4243,160.8778 122.4231,160.8789 122.4219,160.8800 122.4206,160.8810 122.3931,160.8993 122.3631,160.9203 122.3305,160.9442 122.2954,160.9708 122.2576,161.0002 122.2173,161.0324 122.1744,161.0675 122.1289,161.1053 122.0417,161.1779 122.0024,161.2099 121.9659,161.2391 121.9323,161.2653 121.9014,161.2887 121.8734,161.3091 121.8483,161.3267 121.8483,161.3267 121.8476,161.3271 121.8469,161.3274 121.8461,161.3277 121.8454,161.3279 121.8446,161.3282 121.8438,161.3284 121.8430,161.3286 121.8421,161.3288 121.8412,161.3290 121.8403,161.3291 121.8394,161.3292 121.8385,161.3293 121.8375,161.3294 121.8366,161.3295 121.8356,161.3295 121.8345,161.3295 121.8337,161.3294 121.8327,161.3291 121.8317,161.3286 121.8305,161.3280 121.8291,161.3271 121.8277,161.3261 121.8244,161.3235 121.8206,161.3201 121.8164,161.3160 121.8116,161.3111 121.8063,161.3054 121.8006,161.2990 121.7943,161.2919 121.7876,161.2840 121.7804,161.2753 121.7726,161.2659 121.7644,161.2558 121.7557,161.2449 121.7465,161.2332 121.7284,161.2103 121.7119,161.1905 121.7043,161.1817 121.6971,161.1737 121.6903,161.1664 121.6839,161.1599 121.6779,161.1542 121.6723,161.1493 121.6672,161.1451 121.6624,161.1416 121.6581,161.1390 121.6541,161.1371 121.6506,161.1359 121.6475,161.1355 121.6461,161.1356 121.6447,161.1357 121.6433,161.1358 121.6420,161.1360 121.6406,161.1363 121.6392,161.1367 121.6378,161.1371 121.6364,161.1376 121.6351,161.1381 121.6337,161.1388 121.6323,161.1394 121.6309,161.1402 121.6296,161.1410 121.6282,161.1418 121.6268,161.1428 121.6254,161.1438 121.6199,161.1490 121.6148,161.1542 121.6100,161.1595 121.6056,161.1648 121.6015,161.1702 121.5978,161.1757 121.5944,161.1812 121.5914,161.1868 121.5887,161.1924 121.5864,161.1981 121.5845,161.2038 121.5829,161.2096 121.5816,161.2154 121.5808,161.2213 121.5802,161.2272 121.5800,161.2332 121.5802,161.2375 121.5806,161.2419 121.5813,161.2464 121.5822,161.2510 121.5834,161.2557 121.5849,161.2606 121.5887,161.2707 121.5936,161.2812 121.5996,161.2923 121.6066,161.3038 121.6148,161.3157 121.6240,161.3282 121.6343,161.3411 121.6457,161.3545 121.6582,161.3684 121.6718,161.3827 121.6864,161.3975 121.7022,161.4128 121.7190,161.4285 121.9130,161.6087 121.9253,161.6238 121.9368,161.6389 121.9475,161.6539 121.9575,161.6688 121.9666,161.6836 121.9750,161.6984 121.9825,161.7131 121.9893,161.7277 121.9953,161.7423 122.0004,161.7568 122.0048,161.7713 122.0084,161.7857 122.0112,161.8000 122.0132,161.8143 122.0144,161.8285 122.0147,161.8426 122.0139,161.8706 122.0115,161.8978 122.0074,161.9242 122.0017,161.9499 121.9943,161.9748 121.9853,161.9989 121.9747,162.0223 121.9625,162.0448 121.9486,162.0666 121.9331,162.0876 121.9159,162.1079 121.8971,162.1274 121.8767,162.1461 121.8547,162.1640 121.8310,162.1811 121.8057,162.1975 121.7868,162.2087 121.7679,162.2191 121.7491,162.2288 121.7302,162.2378 121.7115,162.2461 121.6927,162.2537 121.6740,162.2605 121.6554,162.2666 121.6367,162.2720 121.6181,162.2767 121.5995,162.2807 121.5810,162.2839 121.5625,162.2865 121.5440,162.2883 121.5256,162.2893 121.5071,162.2897 121.4894,162.2893 121.4712,162.2880 121.4527,162.2858 121.4337,162.2828 121.4143,162.2789 121.3945,162.2742 121.3744,162.2686 121.3538,162.2622 121.3327,162.2549 121.3113,162.2467 121.2895,162.2377 121.2673,162.2278 121.2446,162.2170 121.2216,162.2054 121.1981,162.1930 121.1742,162.1796 121.1343,162.1561 121.0956,162.1317 121.0583,162.1065 121.0222,162.0803 120.9874,162.0531 120.9540,162.0251 120.9218,161.9962 120.8909,161.9664 120.8897,161.9654 120.8886,161.9642 120.8876,161.9631 120.8866,161.9619 120.8858,161.9606 120.8850,161.9593 120.8843,161.9579 120.8836,161.9564 120.8831,161.9550 120.8826,161.9534 120.8822,161.9518 120.8818,161.9502 120.8816,161.9485 120.8814,161.9467 120.8813,161.9449 120.8812,161.9430 120.8817,161.9341 120.8830,161.9247 120.8852,161.9150 120.8883,161.9049 120.8922,161.8945 120.8971,161.8836 120.9028,161.8724 120.9094,161.8608 120.9169,161.8489 120.9253,161.8365 120.9345,161.8238 120.9447,161.8107 120.9557,161.7972 120.9676,161.7834 120.9804,161.7692 120.9940,161.7546 121.0079,161.7402 121.0215,161.7268 121.0347,161.7144 121.0476,161.7028 121.0601,161.6922 121.0722,161.6825 121.0840,161.6737 121.0955,161.6658 121.1066,161.6589 121.1173,161.6529 121.1277,161.6478 121.1377,161.6437 121.1474,161.6404 121.1567,161.6381 121.1656,161.6367 121.1742,161.6363 121.1753,161.6363 121.1763,161.6363 121.1773,161.6364 121.1783,161.6364 121.1793,161.6365 121.1802,161.6367 121.1812,161.6368 121.1821,161.6370 121.1831,161.6371 121.1840,161.6373 121.1849,161.6376 121.1858,161.6378 121.1867,161.6381 121.1876,161.6384 121.1885,161.6387 121.1894,161.6390 121.3641,161.7835 121.3936,161.8070 121.4203,161.8274 121.4442,161.8447 121.4652,161.8588 121.4746,161.8647 121.4834,161.8698 121.4914,161.8741 121.4987,161.8776 121.5053,161.8804 121.5112,161.8823 121.5164,161.8835 121.5209,161.8839 121.5216,161.8839 121.5223,161.8838 121.5229,161.8837 121.5236,161.8836 121.5242,161.8834 121.5249,161.8832 121.5255,161.8830 121.5261,161.8827 121.5268,161.8824 121.5274,161.8820 121.5280,161.8816 121.5286,161.8812 121.5292,161.8807 121.5297,161.8802 121.5303,161.8796 121.5309,161.8791 121.5314,161.8784 121.5320,161.8778 121.5325,161.8771 121.5330,161.8764 121.5336,161.8756 121.5341,161.8748 121.5351,161.8730 121.5361,161.8712 121.5370,161.8691 121.5379,161.8670 121.5388,161.8646 121.5292,161.8486 121.5184,161.8322 121.5064,161.8154 121.4932,161.7982 121.4788,161.7806 121.4631,161.7625 121.4462,161.7441 121.4280,161.7253 121.4087,161.7061 121.3881,161.6865 121.3663,161.6665 121.3433,161.6462 121.3190,161.6254 121.2935,161.6042 121.2668,161.5826 121.2389,161.5606 121.1022,161.4534 120.9961,161.3684 120.9206,161.3055 120.8943,161.2824 120.8757,161.2648 120.8542,161.2427 120.8341,161.2205 120.8154,161.1984 120.7981,161.1763 120.7821,161.1542 120.7676,161.1321 120.7544,161.1101 120.7426,161.0881 120.7322,161.0661 120.7232,161.0441 120.7156,161.0221 120.7094,161.0002 120.7045,160.9783 120.7010,160.9564 120.6990,160.9345 120.6983,160.9127 120.6996,160.8744 120.7035,160.8372 120.7102,160.8012 120.7194,160.7663 120.7313,160.7326 120.7458,160.7000 120.7630,160.6686 120.7829,160.6382 120.8053,160.6091 120.8305,160.5810 120.8582,160.5541 120.8886,160.5284 120.9217,160.5037 120.9574,160.4803 120.9957,160.4579 121.0367,160.4367 121.0673,160.4220 121.0980,160.4083 121.1288,160.3956 121.1596,160.3837 121.1905,160.3729 121.2215,160.3629 121.2525,160.3540 121.2836,160.3459 121.3148,160.3388 121.3460,160.3327 121.3773,160.3275 121.4086,160.3232 121.4400,160.3199 121.4715,160.3175 121.5030,160.3161 121.5346,160.3157 Z"
       id="path298" />
  </g>
  <g
     style="fill:#000000; fill-opacity:1.0000;  stroke:#000000; stroke-width:0.3000; stroke-opacity:1;  stroke-linecap:round; stroke-linejoin:round;"
     id="g302" />
  <g
     style="fill:#000000; fill-opacity:0.0;  stroke:#000000; stroke-width:0.3000; stroke-opacity:1;  stroke-linecap:round; stroke-linejoin:round;"
     id="g306">
    <path
       d="M106.2158 71.2401 L124.0488 71.2401 "
       id="path304" />
  </g>
  <g
     style="fill:#000000; fill-opacity:0.0;  stroke:#000000; stroke-width:0.1426; stroke-opacity:1;  stroke-linecap:round; stroke-linejoin:round;"
     id="g310">
    <path
       d="M116.7485 159.6492 L116.7420 159.6114 "
       id="path308" />
  </g>
  <g
     style="fill:#000000; fill-opacity:0.0;  stroke:#000000; stroke-width:0.1426; stroke-opacity:1;  stroke-linecap:round; stroke-linejoin:round;"
     id="g318">
    <path
       d="M116.9191 159.9529 L116.8914 159.9248 "
       id="path316" />
  </g>
  <g
     style="fill:#000000; fill-opacity:0.0;  stroke:#000000; stroke-width:0.3000; stroke-opacity:1;  stroke-linecap:round; stroke-linejoin:round;"
     id="g324">
    <path
       d="M106.2158 113.4543 L124.0488 113.4543 "
       id="path320" />
    <path
       d="M106.2158 99.3829 L124.0488 99.3829 "
       id="path322" />
  </g>
  <g
     style="fill:#000000; fill-opacity:0.0;  stroke:#000000; stroke-width:0.3000; stroke-opacity:1;  stroke-linecap:round; stroke-linejoin:round;"
     id="g332">
    <path
       d="M106.2158 85.3115 L124.0488 85.3115 "
       id="path330" />
  </g>
  <g
     style="fill:#000000; fill-opacity:0.0;  stroke:#000000; stroke-width:0.1426; stroke-opacity:1;  stroke-linecap:round; stroke-linejoin:round;"
     id="g338">
    <path
       d="M124.0933 159.5734 L124.0946 159.5353 "
       id="path334" />
    <path
       d="M123.4960 158.9462 L123.4753 158.9459 "
       id="path336" />
  </g>
  <g
     style="fill:#000000; fill-opacity:0.0;  stroke:#000000; stroke-width:0.0330; stroke-opacity:1;  stroke-linecap:round; stroke-linejoin:round;"
     id="g340" />
  <g
     style="fill:#000000; fill-opacity:1.0000;  stroke:#000000; stroke-width:0.0330; stroke-opacity:1;  stroke-linecap:round; stroke-linejoin:round;"
     id="g344">
    <path
       style="fill:#000000; fill-opacity:1.0000;  stroke:#000000; stroke-width:0.0330; stroke-opacity:1;  stroke-linecap:round; stroke-linejoin:round;fill-rule:evenodd;"
       d="M 119.3885,160.3355 119.4272,160.3373 119.4651,160.3402 119.5022,160.3444 119.5385,160.3497 119.5739,160.3562 119.6086,160.3639 119.6424,160.3727 119.6755,160.3828 119.7077,160.3940 119.7391,160.4064 119.7697,160.4200 119.7996,160.4348 119.8286,160.4508 119.8568,160.4679 119.8842,160.4862 119.9143,160.5083 119.9425,160.5313 119.9688,160.5555 119.9931,160.5806 120.0155,160.6069 120.0359,160.6342 120.0544,160.6625 120.0709,160.6919 120.0855,160.7223 120.0982,160.7538 120.1089,160.7864 120.1176,160.8200 120.1244,160.8547 120.1293,160.8904 120.1322,160.9271 120.1332,160.9650 120.1332,160.9650 120.1329,160.9882 120.1319,161.0126 120.1303,161.0381 120.1280,161.0647 120.1251,161.0924 120.1216,161.1213 120.1174,161.1512 120.1125,161.1823 120.1022,161.2416 120.0907,161.2996 120.0781,161.3565 120.0643,161.4122 120.0494,161.4667 120.0334,161.5201 120.0163,161.5722 119.9980,161.6232 119.9786,161.6730 119.9581,161.7216 119.9365,161.7690 119.9137,161.8153 119.8898,161.8603 119.8647,161.9042 119.8386,161.9469 119.8113,161.9884 119.7858,162.0249 119.7598,162.0590 119.7334,162.0908 119.7066,162.1202 119.6792,162.1473 119.6515,162.1720 119.6233,162.1944 119.5946,162.2144 119.5655,162.2320 119.5359,162.2473 119.5059,162.2603 119.4754,162.2709 119.4445,162.2791 119.4132,162.2850 119.3813,162.2885 119.3491,162.2897 119.3156,162.2885 119.2827,162.2847 119.2503,162.2785 119.2184,162.2698 119.1870,162.2587 119.1561,162.2450 119.1258,162.2289 119.0959,162.2103 119.0666,162.1892 119.0378,162.1656 119.0095,162.1395 118.9818,162.1110 118.9545,162.0799 118.9278,162.0464 118.9015,162.0104 118.8758,161.9719 118.8409,161.9138 118.8076,161.8522 118.7759,161.7872 118.7458,161.7188 118.7174,161.6469 118.6906,161.5716 118.6713,161.5110 119.1737,161.5110 119.1740,161.5256 119.1746,161.5398 119.1756,161.5536 119.1770,161.5671 119.1788,161.5802 119.1809,161.5929 119.1834,161.6053 119.1863,161.6173 119.1895,161.6290 119.1932,161.6402 119.1972,161.6511 119.2016,161.6617 119.2064,161.6719 119.2115,161.6817 119.2181,161.6928 119.2253,161.7031 119.2330,161.7127 119.2412,161.7215 119.2499,161.7295 119.2591,161.7367 119.2689,161.7431 119.2792,161.7487 119.2901,161.7536 119.3014,161.7577 119.3133,161.7609 119.3258,161.7634 119.3387,161.7651 119.3522,161.7661 119.3662,161.7662 119.3807,161.7656 119.4035,161.7633 119.4144,161.7614 119.4249,161.7591 119.4350,161.7564 119.4447,161.7531 119.4541,161.7494 119.4631,161.7453 119.4718,161.7407 119.4801,161.7356 119.4880,161.7301 119.4955,161.7241 119.5027,161.7176 119.5095,161.7107 119.5160,161.7033 119.5220,161.6954 119.5277,161.6871 119.5331,161.6783 119.5381,161.6691 119.5427,161.6594 119.5469,161.6492 119.5508,161.6386 119.5574,161.6160 119.5625,161.5915 119.5662,161.5652 119.5684,161.5370 119.5692,161.5070 119.5690,161.4913 119.5683,161.4756 119.5673,161.4599 119.5658,161.4441 119.5639,161.4283 119.5616,161.4125 119.5589,161.3966 119.5557,161.3807 119.5522,161.3648 119.5482,161.3489 119.5438,161.3329 119.5390,161.3169 119.5337,161.3008 119.5281,161.2847 119.5220,161.2686 119.5155,161.2525 119.5069,161.2323 119.4981,161.2135 119.4890,161.1959 119.4797,161.1796 119.4700,161.1647 119.4601,161.1510 119.4551,161.1447 119.4499,161.1387 119.4448,161.1330 119.4395,161.1276 119.4342,161.1226 119.4288,161.1179 119.4233,161.1135 119.4178,161.1094 119.4122,161.1057 119.4066,161.1023 119.4008,161.0992 119.3951,161.0964 119.3892,161.0940 119.3833,161.0919 119.3773,161.0901 119.3712,161.0886 119.3651,161.0875 119.3589,161.0867 119.3526,161.0862 119.3463,161.0860 119.3383,161.0864 119.3304,161.0875 119.3225,161.0894 119.3148,161.0920 119.3072,161.0954 119.2997,161.0996 119.2924,161.1044 119.2851,161.1101 119.2779,161.1165 119.2709,161.1236 119.2639,161.1315 119.2571,161.1402 119.2503,161.1496 119.2437,161.1597 119.2372,161.1706 119.2308,161.1823 119.2267,161.1914 119.2227,161.2016 119.2188,161.2127 119.2149,161.2250 119.2112,161.2382 119.2075,161.2525 119.2040,161.2678 119.2005,161.2841 119.1950,161.3125 119.1901,161.3397 119.1859,161.3659 119.1823,161.3911 119.1793,161.4151 119.1770,161.4381 119.1754,161.4600 119.1744,161.4808 119.1739,161.4961 119.1737,161.5110 118.6713,161.5110 118.6655,161.4929 118.6420,161.4107 118.6249,161.3444 118.6101,161.2812 118.5975,161.2210 118.5873,161.1637 118.5793,161.1095 118.5736,161.0583 118.5702,161.0101 118.5694,160.9872 118.5691,160.9650 118.5702,160.9248 118.5715,160.9052 118.5734,160.8859 118.5759,160.8668 118.5789,160.8481 118.5824,160.8297 118.5865,160.8116 118.5912,160.7938 118.5963,160.7762 118.6021,160.7590 118.6083,160.7421 118.6152,160.7255 118.6225,160.7092 118.6304,160.6932 118.6389,160.6774 118.6479,160.6620 118.6574,160.6469 118.6675,160.6321 118.6782,160.6176 118.6893,160.6034 118.7011,160.5895 118.7133,160.5759 118.7261,160.5626 118.7395,160.5496 118.7534,160.5369 118.7679,160.5245 118.7829,160.5124 118.7984,160.5006 118.8145,160.4891 118.8483,160.4670 118.8753,160.4510 118.9028,160.4360 118.9309,160.4221 118.9596,160.4092 118.9888,160.3973 119.0187,160.3865 119.0491,160.3767 119.0801,160.3679 119.1117,160.3602 119.1439,160.3535 119.1766,160.3478 119.2099,160.3432 119.2439,160.3396 119.2783,160.3370 119.3134,160.3354 119.3491,160.3349 Z"
       id="path342" />
  </g>
  <g
     style="fill:#000000; fill-opacity:1.0000;  stroke:#000000; stroke-width:0.1426; stroke-opacity:1;  stroke-linecap:round; stroke-linejoin:round;"
     id="g346" />
  <g
     style="fill:#000000; fill-opacity:0.0;  stroke:#000000; stroke-width:0.1426; stroke-opacity:1;  stroke-linecap:round; stroke-linejoin:round;"
     id="g362">
    <path
       d="M117.2741 158.9511 L117.2944 158.9488 "
       id="path348" />
    <path
       d="M124.0480 159.3108 L124.0311 159.2752 "
       id="path350" />
    <path
       d="M123.5975 158.9575 L123.5775 158.9540 "
       id="path352" />
    <path
       d="M123.9123 159.1176 L123.8978 159.1043 "
       id="path354" />
    <path
       d="M116.7420 159.6114 L116.7381 159.5734 "
       id="path356" />
    <path
       d="M123.9898 159.2072 L123.9781 159.1912 "
       id="path358" />
    <path
       d="M123.9898 159.8633 L124.0117 159.8299 "
       id="path360" />
  </g>
  <g
     style="fill:#000000; fill-opacity:0.0;  stroke:#000000; stroke-width:0.1426; stroke-opacity:1;  stroke-linecap:round; stroke-linejoin:round;"
     id="g374">
    <path
       d="M124.0895 159.4591 L124.0830 159.4213 "
       id="path368" />
    <path
       d="M116.8914 159.1457 L116.9050 159.1314 "
       id="path370" />
    <path
       d="M123.7496 159.0069 L123.7131 158.9911 "
       id="path372" />
  </g>
  <g
     style="fill:#000000; fill-opacity:0.0;  stroke:#000000; stroke-width:0.2651; stroke-opacity:1;  stroke-linecap:round; stroke-linejoin:round;"
     id="g380" />
  <g
     style="fill:#000000; fill-opacity:1.0000;  stroke:#000000; stroke-width:0.1426; stroke-opacity:1;  stroke-linecap:round; stroke-linejoin:round;"
     id="g386" />
  <g
     style="fill:#000000; fill-opacity:0.0;  stroke:#000000; stroke-width:0.1426; stroke-opacity:1;  stroke-linecap:round; stroke-linejoin:round;"
     id="g392">
    <path
       d="M123.9659 159.1756 L123.9532 159.1604 "
       id="path388" />
    <path
       d="M123.9400 159.9248 L123.9659 159.8949 "
       id="path390" />
  </g>
  <g
     style="fill:#000000; fill-opacity:0.0;  stroke:#000000; stroke-width:0.3000; stroke-opacity:1;  stroke-linecap:round; stroke-linejoin:round;"
     id="g396">
    <path
       d="M106.2158 141.5972 L124.0488 141.5972 "
       id="path394" />
  </g>
  <g
     style="fill:#000000; fill-opacity:0.0;  stroke:#000000; stroke-width:0.3000; stroke-opacity:1;  stroke-linecap:round; stroke-linejoin:round;"
     id="g404">
    <path
       d="M106.2158 127.5258 L124.0488 127.5258 "
       id="path402" />
  </g>
  <g
     style="fill:#000000; fill-opacity:0.0;  stroke:#000000; stroke-width:0.1426; stroke-opacity:1;  stroke-linecap:round; stroke-linejoin:round;"
     id="g408">
    <path
       d="M123.9123 159.9529 L123.9400 159.9248 "
       id="path406" />
  </g>
  <g
     style="fill:#000000; fill-opacity:0.0;  stroke:#000000; stroke-width:0.1426; stroke-opacity:1;  stroke-linecap:round; stroke-linejoin:round;"
     id="g416">
    <path
       d="M123.5370 158.9488 L123.5166 158.9472 "
       id="path414" />
  </g>
  <g
     style="fill:#000000; fill-opacity:0.0;  stroke:#000000; stroke-width:0.1426; stroke-opacity:1;  stroke-linecap:round; stroke-linejoin:round;"
     id="g430">
    <path
       d="M117.1184 160.0794 L117.0818 160.0636 "
       id="path422" />
    <path
       d="M123.5166 160.1233 L123.5573 160.1194 "
       id="path424" />
    <path
       d="M117.0124 160.0255 L116.9798 160.0033 "
       id="path426" />
    <path
       d="M116.8533 159.1912 L116.8655 159.1755 "
       id="path428" />
  </g>
  <g
     style="fill:#000000; fill-opacity:0.0;  stroke:#000000; stroke-width:0.1426; stroke-opacity:1;  stroke-linecap:round; stroke-linejoin:round;"
     id="g446">
    <path
       d="M123.5166 158.9472 L123.4960 158.9462 "
       id="path436" />
    <path
       d="M123.8978 159.1043 L123.8828 159.0914 "
       id="path438" />
    <path
       d="M116.8003 159.7953 L116.7835 159.7597 "
       id="path440" />
    <path
       d="M124.0895 159.6114 L124.0933 159.5734 "
       id="path442" />
    <path
       d="M116.7575 159.3839 L116.7692 159.3470 "
       id="path444" />
  </g>
  <g
     style="fill:#000000; fill-opacity:0.0;  stroke:#000000; stroke-width:0.1426; stroke-opacity:1;  stroke-linecap:round; stroke-linejoin:round;"
     id="g458">
    <path
       d="M117.2339 158.9575 L117.2539 158.9539 "
       id="path456" />
  </g>
  <g
     style="fill:#000000; fill-opacity:0.0;  stroke:#000000; stroke-width:0.1426; stroke-opacity:1;  stroke-linecap:round; stroke-linejoin:round;"
     id="g470">
    <path
       d="M116.7692 159.3470 L116.7835 159.3108 "
       id="path464" />
    <path
       d="M117.0465 160.0456 L117.0124 160.0255 "
       id="path466" />
    <path
       d="M123.9781 159.1912 L123.9659 159.1756 "
       id="path468" />
  </g>
  <g
     style="fill:#000000; fill-opacity:0.0;  stroke:#000000; stroke-width:0.2714; stroke-opacity:1;  stroke-linecap:round; stroke-linejoin:round;"
     id="g472" />
  <g
     style="fill:#000000; fill-opacity:1.0000;  stroke:#000000; stroke-width:0.0330; stroke-opacity:1;  stroke-linecap:round; stroke-linejoin:round;"
     id="g480">
    <path
       style="fill:#000000; fill-opacity:1.0000;  stroke:#000000; stroke-width:0.0330; stroke-opacity:1;  stroke-linecap:round; stroke-linejoin:round;fill-rule:evenodd;"
       d="M 123.2363,160.8019 123.2365,160.8026 123.2366,160.8033 123.2368,160.8040 123.2369,160.8047 123.2370,160.8054 123.2371,160.8061 123.2371,160.8068 123.2371,160.8074 123.2372,160.8081 123.2362,160.8015 Z"
       id="path478" />
  </g>
  <g
     style="fill:#000000; fill-opacity:1.0000;  stroke:#000000; stroke-width:0.1426; stroke-opacity:1;  stroke-linecap:round; stroke-linejoin:round;"
     id="g482" />
  <g
     style="fill:#000000; fill-opacity:0.0;  stroke:#000000; stroke-width:0.1426; stroke-opacity:1;  stroke-linecap:round; stroke-linejoin:round;"
     id="g498">
    <path
       d="M124.0480 159.7597 L124.0622 159.7235 "
       id="path484" />
    <path
       d="M123.7131 160.0794 L123.7496 160.0636 "
       id="path486" />
    <path
       d="M124.0739 159.6866 L124.0830 159.6492 "
       id="path488" />
    <path
       d="M116.8416 159.8633 L116.8198 159.8299 "
       id="path490" />
    <path
       d="M124.0622 159.3471 L124.0480 159.3108 "
       id="path492" />
    <path
       d="M123.5573 158.9511 L123.5370 158.9488 "
       id="path494" />
    <path
       d="M117.2944 158.9488 L117.3149 158.9472 "
       id="path496" />
  </g>
  <g
     style="fill:#000000; fill-opacity:0.0;  stroke:#000000; stroke-width:0.1426; stroke-opacity:1;  stroke-linecap:round; stroke-linejoin:round;"
     id="g510">
    <path
       d="M116.7692 159.7234 L116.7575 159.6866 "
       id="path504" />
    <path
       d="M116.7485 159.4213 L116.7575 159.3839 "
       id="path506" />
    <path
       d="M116.7575 159.6866 L116.7485 159.6492 "
       id="path508" />
  </g>
  <g
     id="g1859">
    <g
       style="fill:#000000; fill-opacity:0.0;  stroke:#000000; stroke-width:0.2714; stroke-opacity:1;  stroke-linecap:round; stroke-linejoin:round;"
       id="g32">
      <path
         d="M108.3963 43.3375 L108.4510 43.3809 "
         id="path30" />
    </g>
    <g
       style="fill:#000000; fill-opacity:1.0000;  stroke:#000000; stroke-width:0.1000; stroke-opacity:1;  stroke-linecap:round; stroke-linejoin:round;"
       id="g48">
      <path
         style="fill:#000000; fill-opacity:1.0000;  stroke:#000000; stroke-width:0.1000; stroke-opacity:1;  stroke-linecap:round; stroke-linejoin:round;fill-rule:evenodd;"
         d="M 109.6571,44.0954 109.6799,44.0971 109.7024,44.1000 109.7246,44.1039 109.7464,44.1090 109.7677,44.1150 109.7886,44.1221 109.8091,44.1302 109.8290,44.1392 109.8484,44.1491 109.8672,44.1599 109.8855,44.1716 109.9031,44.1842 109.9201,44.1976 109.9365,44.2117 109.9521,44.2266 109.9670,44.2422 109.9811,44.2586 109.9945,44.2756 110.0070,44.2932 110.0187,44.3115 110.0296,44.3303 110.0395,44.3497 110.0485,44.3696 110.0566,44.3901 110.0637,44.4110 110.0697,44.4323 110.0748,44.4541 110.0787,44.4763 110.0816,44.4988 110.0833,44.5216 110.0839,44.5448 110.0833,44.5680 110.0816,44.5908 110.0787,44.6133 110.0748,44.6355 110.0697,44.6573 110.0637,44.6786 110.0566,44.6995 110.0485,44.7200 110.0395,44.7399 110.0296,44.7593 110.0187,44.7781 110.0070,44.7964 109.9945,44.8140 109.9811,44.8310 109.9670,44.8474 109.9521,44.8630 109.9365,44.8779 109.9201,44.8920 109.9031,44.9054 109.8855,44.9179 109.8672,44.9296 109.8484,44.9405 109.8290,44.9504 109.8091,44.9594 109.7886,44.9675 109.7677,44.9746 109.7464,44.9806 109.7246,44.9857 109.7024,44.9896 109.6799,44.9925 109.6571,44.9942 109.6339,44.9948 109.6107,44.9942 109.5879,44.9925 109.5654,44.9896 109.5432,44.9857 109.5214,44.9806 109.5001,44.9746 109.4792,44.9675 109.4587,44.9594 109.4388,44.9504 109.4194,44.9405 109.4006,44.9296 109.3823,44.9179 109.3647,44.9054 109.3477,44.8920 109.3313,44.8779 109.3157,44.8630 109.3008,44.8474 109.2867,44.8310 109.2733,44.8140 109.2607,44.7964 109.2490,44.7781 109.2382,44.7593 109.2283,44.7399 109.2193,44.7200 109.2112,44.6995 109.2041,44.6786 109.1981,44.6573 109.1930,44.6355 109.1891,44.6133 109.1862,44.5908 109.1845,44.5680 109.1839,44.5448 109.1845,44.5216 109.1862,44.4988 109.1891,44.4763 109.1930,44.4541 109.1981,44.4323 109.2041,44.4110 109.2112,44.3901 109.2193,44.3696 109.2283,44.3497 109.2382,44.3303 109.2490,44.3115 109.2607,44.2932 109.2733,44.2756 109.2867,44.2586 109.3008,44.2422 109.3157,44.2266 109.3313,44.2117 109.3477,44.1976 109.3647,44.1842 109.3823,44.1716 109.4006,44.1599 109.4194,44.1491 109.4388,44.1392 109.4587,44.1302 109.4792,44.1221 109.5001,44.1150 109.5214,44.1090 109.5432,44.1039 109.5654,44.1000 109.5879,44.0971 109.6107,44.0954 109.6339,44.0948 Z"
         id="path46" />
    </g>
    <g
       style="fill:#000000; fill-opacity:0.0;  stroke:#000000; stroke-width:0.2714; stroke-opacity:1;  stroke-linecap:round; stroke-linejoin:round;"
       id="g82">
      <path
         d="M107.6080 43.2884 L107.6682 43.2558 "
         id="path80" />
    </g>
    <g
       style="fill:#000000; fill-opacity:0.0;  stroke:#000000; stroke-width:0.2714; stroke-opacity:1;  stroke-linecap:round; stroke-linejoin:round;"
       id="g106">
      <path
         d="M108.2872 43.2660 L108.3417 43.2992 "
         id="path104" />
    </g>
    <g
       style="fill:#000000; fill-opacity:1.0000;  stroke:#000000; stroke-width:0.1000; stroke-opacity:1;  stroke-linecap:round; stroke-linejoin:round;"
       id="g118">
      <path
         style="fill:#000000; fill-opacity:1.0000;  stroke:#000000; stroke-width:0.1000; stroke-opacity:1;  stroke-linecap:round; stroke-linejoin:round;fill-rule:evenodd;"
         d="M 106.3103,44.0954 106.3331,44.0971 106.3557,44.1000 106.3778,44.1039 106.3996,44.1090 106.4209,44.1150 106.4419,44.1221 106.4623,44.1302 106.4822,44.1392 106.5016,44.1491 106.5205,44.1599 106.5387,44.1716 106.5564,44.1842 106.5734,44.1976 106.5897,44.2117 106.6053,44.2266 106.6202,44.2422 106.6344,44.2586 106.6477,44.2756 106.6603,44.2932 106.6720,44.3115 106.6828,44.3303 106.6928,44.3497 106.7018,44.3696 106.7098,44.3901 106.7169,44.4110 106.7230,44.4323 106.7280,44.4541 106.7319,44.4763 106.7348,44.4988 106.7365,44.5216 106.7371,44.5448 106.7365,44.5680 106.7348,44.5908 106.7319,44.6133 106.7280,44.6355 106.7230,44.6573 106.7169,44.6786 106.7098,44.6995 106.7018,44.7200 106.6928,44.7399 106.6828,44.7593 106.6720,44.7781 106.6603,44.7964 106.6477,44.8140 106.6344,44.8310 106.6202,44.8474 106.6053,44.8630 106.5897,44.8779 106.5734,44.8920 106.5564,44.9054 106.5387,44.9179 106.5205,44.9296 106.5016,44.9405 106.4822,44.9504 106.4623,44.9594 106.4419,44.9675 106.4209,44.9746 106.3996,44.9806 106.3778,44.9857 106.3557,44.9896 106.3331,44.9925 106.3103,44.9942 106.2871,44.9948 106.2640,44.9942 106.2411,44.9925 106.2186,44.9896 106.1964,44.9857 106.1747,44.9806 106.1533,44.9746 106.1324,44.9675 106.1120,44.9594 106.0920,44.9504 106.0726,44.9405 106.0538,44.9296 106.0355,44.9179 106.0179,44.9054 106.0009,44.8920 105.9846,44.8779 105.9689,44.8630 105.9540,44.8474 105.9399,44.8310 105.9265,44.8140 105.9140,44.7964 105.9023,44.7781 105.8914,44.7593 105.8815,44.7399 105.8725,44.7200 105.8644,44.6995 105.8574,44.6786 105.8513,44.6573 105.8463,44.6355 105.8423,44.6133 105.8395,44.5908 105.8377,44.5680 105.8371,44.5448 105.8377,44.5216 105.8395,44.4988 105.8423,44.4763 105.8463,44.4541 105.8513,44.4323 105.8574,44.4110 105.8644,44.3901 105.8725,44.3696 105.8815,44.3497 105.8914,44.3303 105.9023,44.3115 105.9140,44.2932 105.9265,44.2756 105.9399,44.2586 105.9540,44.2422 105.9689,44.2266 105.9846,44.2117 106.0009,44.1976 106.0179,44.1842 106.0355,44.1716 106.0538,44.1599 106.0726,44.1491 106.0920,44.1392 106.1120,44.1302 106.1324,44.1221 106.1533,44.1150 106.1747,44.1090 106.1964,44.1039 106.2186,44.1000 106.2411,44.0971 106.2640,44.0954 106.2871,44.0948 Z"
         id="path116" />
    </g>
    <g
       style="fill:#000000; fill-opacity:0.0;  stroke:#000000; stroke-width:0.2714; stroke-opacity:1;  stroke-linecap:round; stroke-linejoin:round;"
       id="g154">
      <path
         d="M108.0127 43.1794 L108.0681 43.1860 "
         id="path146" />
      <path
         d="M106.8609 44.0405 L107.0108 43.8486 "
         id="path148" />
      <path
         d="M108.2327 43.2381 L108.2872 43.2660 "
         id="path150" />
      <path
         d="M107.0830 43.7620 L107.1537 43.6817 "
         id="path152" />
    </g>
    <g
       style="fill:#000000; fill-opacity:0.0;  stroke:#000000; stroke-width:0.2714; stroke-opacity:1;  stroke-linecap:round; stroke-linejoin:round;"
       id="g166">
      <path
         d="M107.4845 43.3710 L107.5468 43.3268 "
         id="path164" />
    </g>
    <g
       style="fill:#000000; fill-opacity:0.0;  stroke:#000000; stroke-width:0.2714; stroke-opacity:1;  stroke-linecap:round; stroke-linejoin:round;"
       id="g174">
      <path
         d="M107.5468 43.3268 L107.6080 43.2884 "
         id="path172" />
    </g>
    <g
       style="fill:#000000; fill-opacity:0.0;  stroke:#000000; stroke-width:0.2714; stroke-opacity:1;  stroke-linecap:round; stroke-linejoin:round;"
       id="g192">
      <path
         d="M107.8435 43.1924 L107.9005 43.1825 "
         id="path190" />
    </g>
    <g
       style="fill:#000000; fill-opacity:0.0;  stroke:#000000; stroke-width:0.2714; stroke-opacity:1;  stroke-linecap:round; stroke-linejoin:round;"
       id="g216">
      <path
         d="M107.9005 43.1825 L107.9568 43.1782 "
         id="path212" />
      <path
         d="M108.1232 43.1980 L108.1780 43.2154 "
         id="path214" />
    </g>
    <g
       style="fill:#000000; fill-opacity:0.0;  stroke:#000000; stroke-width:0.2714; stroke-opacity:1;  stroke-linecap:round; stroke-linejoin:round;"
       id="g224">
      <path
         d="M108.5612 43.4828 L108.6169 43.5412 "
         id="path222" />
    </g>
    <g
       style="fill:#000000; fill-opacity:0.0;  stroke:#000000; stroke-width:0.2714; stroke-opacity:1;  stroke-linecap:round; stroke-linejoin:round;"
       id="g240">
      <path
         d="M107.4210 43.4212 L107.4845 43.3710 "
         id="path238" />
    </g>
    <g
       style="fill:#000000; fill-opacity:0.0;  stroke:#000000; stroke-width:0.2714; stroke-opacity:1;  stroke-linecap:round; stroke-linejoin:round;"
       id="g276">
      <path
         d="M108.6730 43.6046 L108.7871 43.7457 "
         id="path272" />
      <path
         d="M108.5059 43.4293 L108.5612 43.4828 "
         id="path274" />
    </g>
    <g
       style="fill:#000000; fill-opacity:0.0;  stroke:#000000; stroke-width:0.2714; stroke-opacity:1;  stroke-linecap:round; stroke-linejoin:round;"
       id="g314">
      <path
         d="M107.9568 43.1782 L108.0127 43.1794 "
         id="path312" />
    </g>
    <g
       style="fill:#000000; fill-opacity:0.0;  stroke:#000000; stroke-width:0.2714; stroke-opacity:1;  stroke-linecap:round; stroke-linejoin:round;"
       id="g328">
      <path
         d="M107.7858 43.2079 L107.8435 43.1924 "
         id="path326" />
    </g>
    <g
       style="fill:#000000; fill-opacity:0.0;  stroke:#000000; stroke-width:0.2714; stroke-opacity:1;  stroke-linecap:round; stroke-linejoin:round;"
       id="g366">
      <path
         d="M108.4510 43.3809 L108.5059 43.4293 "
         id="path364" />
    </g>
    <g
       style="fill:#000000; fill-opacity:0.0;  stroke:#000000; stroke-width:0.2714; stroke-opacity:1;  stroke-linecap:round; stroke-linejoin:round;"
       id="g378">
      <path
         d="M108.0681 43.1860 L108.1232 43.1980 "
         id="path376" />
    </g>
    <g
       style="fill:#000000; fill-opacity:0.0;  stroke:#000000; stroke-width:0.2714; stroke-opacity:1;  stroke-linecap:round; stroke-linejoin:round;"
       id="g400">
      <path
         d="M107.3563 43.4772 L107.4210 43.4212 "
         id="path398" />
    </g>
    <g
       style="fill:#000000; fill-opacity:0.0;  stroke:#000000; stroke-width:0.2714; stroke-opacity:1;  stroke-linecap:round; stroke-linejoin:round;"
       id="g412">
      <path
         d="M108.6169 43.5412 L108.6730 43.6046 "
         id="path410" />
    </g>
    <g
       style="fill:#000000; fill-opacity:0.0;  stroke:#000000; stroke-width:0.2714; stroke-opacity:1;  stroke-linecap:round; stroke-linejoin:round;"
       id="g420">
      <path
         d="M107.6682 43.2558 L107.7274 43.2290 "
         id="path418" />
    </g>
    <g
       style="fill:#000000; fill-opacity:0.0;  stroke:#000000; stroke-width:0.2714; stroke-opacity:1;  stroke-linecap:round; stroke-linejoin:round;"
       id="g434">
      <path
         d="M107.1537 43.6817 L107.2227 43.6074 "
         id="path432" />
    </g>
    <g
       style="fill:#000000; fill-opacity:0.0;  stroke:#000000; stroke-width:0.2714; stroke-opacity:1;  stroke-linecap:round; stroke-linejoin:round;"
       id="g454">
      <path
         d="M107.2902 43.5393 L107.3563 43.4772 "
         id="path448" />
      <path
         d="M108.1780 43.2154 L108.2327 43.2381 "
         id="path450" />
      <path
         d="M108.3417 43.2992 L108.3963 43.3375 "
         id="path452" />
    </g>
    <g
       style="fill:#000000; fill-opacity:0.0;  stroke:#000000; stroke-width:0.2714; stroke-opacity:1;  stroke-linecap:round; stroke-linejoin:round;"
       id="g462">
      <path
         d="M107.7274 43.2290 L107.7858 43.2079 "
         id="path460" />
    </g>
    <g
       style="fill:#000000; fill-opacity:1.0000;  stroke:#000000; stroke-width:0.2714; stroke-opacity:1;  stroke-linecap:round; stroke-linejoin:round;"
       id="g476">
      <path
         style="fill:#000000; fill-opacity:1.0000;  stroke:#000000; stroke-width:0.2714; stroke-opacity:1;  stroke-linecap:round; stroke-linejoin:round;fill-rule:evenodd;"
         d="M 108.9073,43.9372 108.6036,43.8705 108.8697,43.4514 Z"
         id="path474" />
    </g>
    <g
       style="fill:#000000; fill-opacity:0.0;  stroke:#000000; stroke-width:0.2714; stroke-opacity:1;  stroke-linecap:round; stroke-linejoin:round;"
       id="g502">
      <path
         d="M107.0108 43.8486 L107.0830 43.7620 "
         id="path500" />
    </g>
    <g
       style="fill:#000000; fill-opacity:0.0;  stroke:#000000; stroke-width:0.2714; stroke-opacity:1;  stroke-linecap:round; stroke-linejoin:round;"
       id="g514">
      <path
         d="M107.2227 43.6074 L107.2902 43.5393 "
         id="path512" />
    </g>
  </g>
  <g
     style="fill:#000000; fill-opacity:0.0;  stroke:#000000; stroke-width:0.1426; stroke-opacity:1;  stroke-linecap:round; stroke-linejoin:round;"
     id="g520">
    <path
       d="M117.2741 160.1194 L117.2339 160.1130 "
       id="path516" />
    <path
       d="M117.1945 158.9663 L117.2141 158.9616 "
       id="path518" />
  </g>
  <g
     style="fill:#000000; fill-opacity:0.0;  stroke:#000000; stroke-width:0.1000; stroke-opacity:1;  stroke-linecap:round; stroke-linejoin:round;"
     id="g522" />
  <g
     id="g1867">
    <g
       style="fill:#000000; fill-opacity:0.0;  stroke:#000000; stroke-width:0.2651; stroke-opacity:1;  stroke-linecap:round; stroke-linejoin:round;"
       id="g262">
      <path
         d="M107.6438 58.6158 L109.5443 58.6158 "
         id="path260" />
    </g>
    <g
       style="fill:#000000; fill-opacity:1.0000;  stroke:#000000; stroke-width:0.2651; stroke-opacity:1;  stroke-linecap:round; stroke-linejoin:round;"
       id="g384">
      <path
         style="fill:#000000; fill-opacity:1.0000;  stroke:#000000; stroke-width:0.2651; stroke-opacity:1;  stroke-linecap:round; stroke-linejoin:round;fill-rule:evenodd;"
         d="M 107.5714,58.9078 107.2327,58.6043 107.5733,58.3159 Z"
         id="path382" />
    </g>
    <g
       style="fill:#000000; fill-opacity:1.0000;  stroke:#000000; stroke-width:0.1000; stroke-opacity:1;  stroke-linecap:round; stroke-linejoin:round;"
       id="g526">
      <path
         style="fill:#000000; fill-opacity:1.0000;  stroke:#000000; stroke-width:0.1000; stroke-opacity:1;  stroke-linecap:round; stroke-linejoin:round;fill-rule:evenodd;"
         d="M 106.3103,58.1664 106.3331,58.1681 106.3557,58.1710 106.3778,58.1749 106.3996,58.1800 106.4209,58.1860 106.4419,58.1931 106.4623,58.2012 106.4822,58.2102 106.5016,58.2201 106.5205,58.2309 106.5387,58.2426 106.5564,58.2552 106.5734,58.2686 106.5897,58.2827 106.6053,58.2976 106.6202,58.3132 106.6344,58.3296 106.6477,58.3466 106.6603,58.3642 106.6720,58.3825 106.6828,58.4013 106.6928,58.4207 106.7018,58.4406 106.7098,58.4611 106.7169,58.4820 106.7230,58.5033 106.7280,58.5251 106.7319,58.5473 106.7348,58.5698 106.7365,58.5926 106.7371,58.6158 106.7365,58.6389 106.7348,58.6618 106.7319,58.6843 106.7280,58.7065 106.7230,58.7283 106.7169,58.7496 106.7098,58.7705 106.7018,58.7910 106.6928,58.8109 106.6828,58.8303 106.6720,58.8491 106.6603,58.8674 106.6477,58.8850 106.6344,58.9020 106.6202,58.9184 106.6053,58.9340 106.5897,58.9489 106.5734,58.9630 106.5564,58.9764 106.5387,58.9889 106.5205,59.0006 106.5016,59.0115 106.4822,59.0214 106.4623,59.0304 106.4419,59.0385 106.4209,59.0456 106.3996,59.0516 106.3778,59.0567 106.3557,59.0606 106.3331,59.0635 106.3103,59.0652 106.2871,59.0658 106.2640,59.0652 106.2411,59.0635 106.2186,59.0606 106.1964,59.0567 106.1747,59.0516 106.1533,59.0456 106.1324,59.0385 106.1120,59.0304 106.0920,59.0214 106.0726,59.0115 106.0538,59.0006 106.0355,58.9889 106.0179,58.9764 106.0009,58.9630 105.9846,58.9489 105.9689,58.9340 105.9540,58.9184 105.9399,58.9020 105.9265,58.8850 105.9140,58.8674 105.9023,58.8491 105.8914,58.8303 105.8815,58.8109 105.8725,58.7910 105.8644,58.7705 105.8574,58.7496 105.8513,58.7283 105.8463,58.7065 105.8423,58.6843 105.8395,58.6618 105.8377,58.6389 105.8371,58.6158 105.8377,58.5926 105.8395,58.5698 105.8423,58.5473 105.8463,58.5251 105.8513,58.5033 105.8574,58.4820 105.8644,58.4611 105.8725,58.4406 105.8815,58.4207 105.8914,58.4013 105.9023,58.3825 105.9140,58.3642 105.9265,58.3466 105.9399,58.3296 105.9540,58.3132 105.9689,58.2976 105.9846,58.2827 106.0009,58.2686 106.0179,58.2552 106.0355,58.2426 106.0538,58.2309 106.0726,58.2201 106.0920,58.2102 106.1120,58.2012 106.1324,58.1931 106.1533,58.1860 106.1747,58.1800 106.1964,58.1749 106.2186,58.1710 106.2411,58.1681 106.2640,58.1664 106.2871,58.1658 Z"
         id="path524" />
    </g>
  </g>
  <g
     style="fill:#000000; fill-opacity:1.0000;  stroke:#000000; stroke-width:0.1426; stroke-opacity:1;  stroke-linecap:round; stroke-linejoin:round;"
     id="g528" />
  <g
     style="fill:#000000; fill-opacity:0.0;  stroke:#000000; stroke-width:0.1426; stroke-opacity:1;  stroke-linecap:round; stroke-linejoin:round;"
     id="g540">
    <path
       d="M124.0311 159.2752 L124.0117 159.2406 "
       id="path530" />
    <path
       d="M117.2539 158.9539 L117.2741 158.9511 "
       id="path532" />
    <path
       d="M123.7850 159.0249 L123.7496 159.0069 "
       id="path534" />
    <path
       d="M124.0622 159.7235 L124.0739 159.6866 "
       id="path536" />
    <path
       d="M124.0830 159.6492 L124.0895 159.6114 "
       id="path538" />
  </g>
  <g
     style="fill:#000000; fill-opacity:0.0;  stroke:#000000; stroke-width:0.2000; stroke-opacity:1;  stroke-linecap:round; stroke-linejoin:round;"
     id="g652">
    <g
       transform="rotate(-45.000000 108.9660 131.1402)"
       id="g544">
      <text
         x="108.9660"
         y="131.1402"
         textLength="3.9095"
         font-size="2.6667"
         lengthAdjust="spacingAndGlyphs"
         text-anchor="middle"
         opacity="0"
         id="text542">32</text>
    </g>
    <g
       class="stroked-text"
       id="g594">
      <desc
         id="desc546">32</desc>
      <path
         d="M106.2265 130.6904 L107.1020 129.8149 "
         id="path548" />
      <path
         d="M107.1020 129.8149 L107.1693 130.8251 "
         id="path550" />
      <path
         d="M107.1693 130.8251 L107.3714 130.6231 "
         id="path552" />
      <path
         d="M107.3714 130.6231 L107.5734 130.5557 "
         id="path554" />
      <path
         d="M107.5734 130.5557 L107.7081 130.5557 "
         id="path556" />
      <path
         d="M107.7081 130.5557 L107.9101 130.6231 "
         id="path558" />
      <path
         d="M107.9101 130.6231 L108.2468 130.9598 "
         id="path560" />
      <path
         d="M108.2468 130.9598 L108.3142 131.1618 "
         id="path562" />
      <path
         d="M108.3142 131.1618 L108.3142 131.2965 "
         id="path564" />
      <path
         d="M108.3142 131.2965 L108.2468 131.4985 "
         id="path566" />
      <path
         d="M108.2468 131.4985 L107.8428 131.9026 "
         id="path568" />
      <path
         d="M107.8428 131.9026 L107.6407 131.9699 "
         id="path570" />
      <path
         d="M107.6407 131.9699 L107.5060 131.9699 "
         id="path572" />
      <path
         d="M107.7754 129.4109 L107.7754 129.2762 "
         id="path574" />
      <path
         d="M107.7754 129.2762 L107.8428 129.0742 "
         id="path576" />
      <path
         d="M107.8428 129.0742 L108.1795 128.7374 "
         id="path578" />
      <path
         d="M108.1795 128.7374 L108.3815 128.6701 "
         id="path580" />
      <path
         d="M108.3815 128.6701 L108.5162 128.6701 "
         id="path582" />
      <path
         d="M108.5162 128.6701 L108.7182 128.7374 "
         id="path584" />
      <path
         d="M108.7182 128.7374 L108.8529 128.8721 "
         id="path586" />
      <path
         d="M108.8529 128.8721 L108.9876 129.1415 "
         id="path588" />
      <path
         d="M108.9876 129.1415 L108.9876 130.7577 "
         id="path590" />
      <path
         d="M108.9876 130.7577 L109.8631 129.8823 "
         id="path592" />
    </g>
    <g
       transform="rotate(-45.000000 108.9660 145.1610)"
       id="g598">
      <text
         x="108.9660"
         y="145.1610"
         textLength="3.9095"
         font-size="2.6667"
         lengthAdjust="spacingAndGlyphs"
         text-anchor="middle"
         opacity="0"
         id="text596">64</text>
    </g>
    <g
       class="stroked-text"
       id="g650">
      <desc
         id="desc600">64</desc>
      <path
         d="M106.9673 143.9704 L106.6979 144.2398 "
         id="path602" />
      <path
         d="M106.6979 144.2398 L106.6306 144.4418 "
         id="path604" />
      <path
         d="M106.6306 144.4418 L106.6306 144.5765 "
         id="path606" />
      <path
         d="M106.6306 144.5765 L106.6979 144.9132 "
         id="path608" />
      <path
         d="M106.6979 144.9132 L106.9000 145.2499 "
         id="path610" />
      <path
         d="M106.9000 145.2499 L107.4387 145.7887 "
         id="path612" />
      <path
         d="M107.4387 145.7887 L107.6407 145.8560 "
         id="path614" />
      <path
         d="M107.6407 145.8560 L107.7754 145.8560 "
         id="path616" />
      <path
         d="M107.7754 145.8560 L107.9775 145.7887 "
         id="path618" />
      <path
         d="M107.9775 145.7887 L108.2468 145.5193 "
         id="path620" />
      <path
         d="M108.2468 145.5193 L108.3142 145.3173 "
         id="path622" />
      <path
         d="M108.3142 145.3173 L108.3142 145.1826 "
         id="path624" />
      <path
         d="M108.3142 145.1826 L108.2468 144.9806 "
         id="path626" />
      <path
         d="M108.2468 144.9806 L107.9101 144.6439 "
         id="path628" />
      <path
         d="M107.9101 144.6439 L107.7081 144.5765 "
         id="path630" />
      <path
         d="M107.7081 144.5765 L107.5734 144.5765 "
         id="path632" />
      <path
         d="M107.5734 144.5765 L107.3714 144.6439 "
         id="path634" />
      <path
         d="M107.3714 144.6439 L107.1020 144.9132 "
         id="path636" />
      <path
         d="M107.1020 144.9132 L107.0346 145.1153 "
         id="path638" />
      <path
         d="M107.0346 145.1153 L107.0346 145.2499 "
         id="path640" />
      <path
         d="M107.0346 145.2499 L107.1020 145.4520 "
         id="path642" />
      <path
         d="M108.7856 143.0950 L109.7284 144.0378 "
         id="path644" />
      <path
         d="M107.9101 142.8929 L108.5835 144.2398 "
         id="path646" />
      <path
         d="M108.5835 144.2398 L109.4590 143.3643 "
         id="path648" />
    </g>
  </g>
  <g
     style="fill:#000000; fill-opacity:0.0;  stroke:#000000; stroke-width:0.3000; stroke-opacity:1;  stroke-linecap:round; stroke-linejoin:round;"
     id="g690">
    <text
       x="105.4100"
       y="39.8272"
       textLength="7.1500"
       font-size="4.0000"
       lengthAdjust="spacingAndGlyphs"
       text-anchor="start"
       opacity="0"
       id="text654">DIV</text>
    <g
       class="stroked-text"
       id="g688">
      <desc
         id="desc656">DIV</desc>
      <path
         d="M106.3217 39.4445 L106.3217 36.4445 "
         id="path658" />
      <path
         d="M106.3217 36.4445 L107.0359 36.4445 "
         id="path660" />
      <path
         d="M107.0359 36.4445 L107.4645 36.5873 "
         id="path662" />
      <path
         d="M107.4645 36.5873 L107.7502 36.8730 "
         id="path664" />
      <path
         d="M107.7502 36.8730 L107.8931 37.1587 "
         id="path666" />
      <path
         d="M107.8931 37.1587 L108.0359 37.7302 "
         id="path668" />
      <path
         d="M108.0359 37.7302 L108.0359 38.1587 "
         id="path670" />
      <path
         d="M108.0359 38.1587 L107.8931 38.7302 "
         id="path672" />
      <path
         d="M107.8931 38.7302 L107.7502 39.0159 "
         id="path674" />
      <path
         d="M107.7502 39.0159 L107.4645 39.3016 "
         id="path676" />
      <path
         d="M107.4645 39.3016 L107.0359 39.4445 "
         id="path678" />
      <path
         d="M107.0359 39.4445 L106.3217 39.4445 "
         id="path680" />
      <path
         d="M109.3217 39.4445 L109.3217 36.4445 "
         id="path682" />
      <path
         d="M110.3217 36.4445 L111.3217 39.4445 "
         id="path684" />
      <path
         d="M111.3217 39.4445 L112.3217 36.4445 "
         id="path686" />
    </g>
  </g>
  <g
     style="fill:#000000; fill-opacity:0.0;  stroke:#000000; stroke-width:0.2000; stroke-opacity:1;  stroke-linecap:round; stroke-linejoin:round;"
     id="g870">
    <g
       transform="rotate(-45.000000 108.9660 74.5236)"
       id="g694">
      <text
         x="108.9660"
         y="74.5236"
         textLength="2.0048"
         font-size="2.6667"
         lengthAdjust="spacingAndGlyphs"
         text-anchor="middle"
         opacity="0"
         id="text692">2</text>
    </g>
    <g
       class="stroked-text"
       id="g718">
      <desc
         id="desc696">2</desc>
      <path
         d="M107.1020 73.4677 L107.1020 73.3330 "
         id="path698" />
      <path
         d="M107.1020 73.3330 L107.1693 73.1310 "
         id="path700" />
      <path
         d="M107.1693 73.1310 L107.5060 72.7943 "
         id="path702" />
      <path
         d="M107.5060 72.7943 L107.7081 72.7269 "
         id="path704" />
      <path
         d="M107.7081 72.7269 L107.8428 72.7269 "
         id="path706" />
      <path
         d="M107.8428 72.7269 L108.0448 72.7943 "
         id="path708" />
      <path
         d="M108.0448 72.7943 L108.1795 72.9290 "
         id="path710" />
      <path
         d="M108.1795 72.9290 L108.3142 73.1983 "
         id="path712" />
      <path
         d="M108.3142 73.1983 L108.3142 74.8146 "
         id="path714" />
      <path
         d="M108.3142 74.8146 L109.1896 73.9391 "
         id="path716" />
    </g>
    <g
       transform="rotate(-45.000000 108.9660 88.4936)"
       id="g722">
      <text
         x="108.9660"
         y="88.4936"
         textLength="2.0048"
         font-size="2.6667"
         lengthAdjust="spacingAndGlyphs"
         text-anchor="middle"
         opacity="0"
         id="text720">4</text>
    </g>
    <g
       class="stroked-text"
       id="g732">
      <desc
         id="desc724">4</desc>
      <path
         d="M108.1121 87.1010 L109.0549 88.0438 "
         id="path726" />
      <path
         d="M107.2367 86.8990 L107.9101 88.2458 "
         id="path728" />
      <path
         d="M107.9101 88.2458 L108.7856 87.3704 "
         id="path730" />
    </g>
    <g
       transform="rotate(-45.000000 108.9660 102.6160)"
       id="g736">
      <text
         x="108.9660"
         y="102.6160"
         textLength="2.0048"
         font-size="2.6667"
         lengthAdjust="spacingAndGlyphs"
         text-anchor="middle"
         opacity="0"
         id="text734">8</text>
    </g>
    <g
       class="stroked-text"
       id="g802">
      <desc
         id="desc738">8</desc>
      <path
         d="M107.8428 101.7621 L107.6407 101.8295 "
         id="path740" />
      <path
         d="M107.6407 101.8295 L107.5060 101.8295 "
         id="path742" />
      <path
         d="M107.5060 101.8295 L107.3040 101.7621 "
         id="path744" />
      <path
         d="M107.3040 101.7621 L107.2367 101.6948 "
         id="path746" />
      <path
         d="M107.2367 101.6948 L107.1693 101.4928 "
         id="path748" />
      <path
         d="M107.1693 101.4928 L107.1693 101.3581 "
         id="path750" />
      <path
         d="M107.1693 101.3581 L107.2367 101.1560 "
         id="path752" />
      <path
         d="M107.2367 101.1560 L107.5060 100.8867 "
         id="path754" />
      <path
         d="M107.5060 100.8867 L107.7081 100.8193 "
         id="path756" />
      <path
         d="M107.7081 100.8193 L107.8428 100.8193 "
         id="path758" />
      <path
         d="M107.8428 100.8193 L108.0448 100.8867 "
         id="path760" />
      <path
         d="M108.0448 100.8867 L108.1121 100.9540 "
         id="path762" />
      <path
         d="M108.1121 100.9540 L108.1795 101.1560 "
         id="path764" />
      <path
         d="M108.1795 101.1560 L108.1795 101.2907 "
         id="path766" />
      <path
         d="M108.1795 101.2907 L108.1121 101.4928 "
         id="path768" />
      <path
         d="M108.1121 101.4928 L107.8428 101.7621 "
         id="path770" />
      <path
         d="M107.8428 101.7621 L107.7754 101.9642 "
         id="path772" />
      <path
         d="M107.7754 101.9642 L107.7754 102.0989 "
         id="path774" />
      <path
         d="M107.7754 102.0989 L107.8428 102.3009 "
         id="path776" />
      <path
         d="M107.8428 102.3009 L108.1121 102.5703 "
         id="path778" />
      <path
         d="M108.1121 102.5703 L108.3142 102.6376 "
         id="path780" />
      <path
         d="M108.3142 102.6376 L108.4489 102.6376 "
         id="path782" />
      <path
         d="M108.4489 102.6376 L108.6509 102.5703 "
         id="path784" />
      <path
         d="M108.6509 102.5703 L108.9203 102.3009 "
         id="path786" />
      <path
         d="M108.9203 102.3009 L108.9876 102.0989 "
         id="path788" />
      <path
         d="M108.9876 102.0989 L108.9876 101.9642 "
         id="path790" />
      <path
         d="M108.9876 101.9642 L108.9203 101.7621 "
         id="path792" />
      <path
         d="M108.9203 101.7621 L108.6509 101.4928 "
         id="path794" />
      <path
         d="M108.6509 101.4928 L108.4489 101.4254 "
         id="path796" />
      <path
         d="M108.4489 101.4254 L108.3142 101.4254 "
         id="path798" />
      <path
         d="M108.3142 101.4254 L108.1121 101.4928 "
         id="path800" />
    </g>
    <g
       transform="rotate(-45.000000 108.9660 117.0686)"
       id="g806">
      <text
         x="108.9660"
         y="117.0686"
         textLength="3.9095"
         font-size="2.6667"
         lengthAdjust="spacingAndGlyphs"
         text-anchor="middle"
         opacity="0"
         id="text804">16</text>
    </g>
    <g
       class="stroked-text"
       id="g862">
      <desc
         id="desc808">16</desc>
      <path
         d="M108.5162 117.1575 L107.7081 117.9657 "
         id="path810" />
      <path
         d="M108.1121 117.5616 L106.6979 116.1474 "
         id="path812" />
      <path
         d="M106.6979 116.1474 L106.7653 116.4841 "
         id="path814" />
      <path
         d="M106.7653 116.4841 L106.7653 116.7535 "
         id="path816" />
      <path
         d="M106.7653 116.7535 L106.6979 116.9555 "
         id="path818" />
      <path
         d="M108.3142 114.5311 L108.0448 114.8005 "
         id="path820" />
      <path
         d="M108.0448 114.8005 L107.9775 115.0026 "
         id="path822" />
      <path
         d="M107.9775 115.0026 L107.9775 115.1372 "
         id="path824" />
      <path
         d="M107.9775 115.1372 L108.0448 115.4740 "
         id="path826" />
      <path
         d="M108.0448 115.4740 L108.2468 115.8107 "
         id="path828" />
      <path
         d="M108.2468 115.8107 L108.7856 116.3494 "
         id="path830" />
      <path
         d="M108.7856 116.3494 L108.9876 116.4168 "
         id="path832" />
      <path
         d="M108.9876 116.4168 L109.1223 116.4168 "
         id="path834" />
      <path
         d="M109.1223 116.4168 L109.3243 116.3494 "
         id="path836" />
      <path
         d="M109.3243 116.3494 L109.5937 116.0801 "
         id="path838" />
      <path
         d="M109.5937 116.0801 L109.6610 115.8780 "
         id="path840" />
      <path
         d="M109.6610 115.8780 L109.6610 115.7433 "
         id="path842" />
      <path
         d="M109.6610 115.7433 L109.5937 115.5413 "
         id="path844" />
      <path
         d="M109.5937 115.5413 L109.2570 115.2046 "
         id="path846" />
      <path
         d="M109.2570 115.2046 L109.0549 115.1372 "
         id="path848" />
      <path
         d="M109.0549 115.1372 L108.9203 115.1372 "
         id="path850" />
      <path
         d="M108.9203 115.1372 L108.7182 115.2046 "
         id="path852" />
      <path
         d="M108.7182 115.2046 L108.4489 115.4740 "
         id="path854" />
      <path
         d="M108.4489 115.4740 L108.3815 115.6760 "
         id="path856" />
      <path
         d="M108.3815 115.6760 L108.3815 115.8107 "
         id="path858" />
      <path
         d="M108.3815 115.8107 L108.4489 116.0127 "
         id="path860" />
    </g>
    <g
       id="g864" />
    <g
       id="g866" />
    <g
       id="g868" />
  </g>
  <circle
     cx="121.9282"
     cy="144.5"
     r="1.5"
     id="circle872"
     style="fill:#a0a0a0;fill-opacity:0;stroke:#aeaeae;stroke-width:0.2;stroke-linecap:round;stroke-linejoin:round;stroke-opacity:1" />
  <circle
     cx="115"
     cy="134.4286"
     r="4.25"
     id="circle874"
     style="fill:#a0a0a0;fill-opacity:0;stroke:#aeaeae;stroke-width:0.2;stroke-linecap:round;stroke-linejoin:round;stroke-opacity:1" />
  <circle
     cx="121.9282"
     cy="60.070999"
     r="1.5"
     id="circle876"
     style="fill:#a0a0a0;fill-opacity:0;stroke:#aeaeae;stroke-width:0.2;stroke-linecap:round;stroke-linejoin:round;stroke-opacity:1" />
  <circle
     cx="115"
     cy="106.2857"
     r="4.25"
     id="circle878"
     style="fill:#a0a0a0;fill-opacity:0;stroke:#aeaeae;stroke-width:0.2;stroke-linecap:round;stroke-linejoin:round;stroke-opacity:1" />
  <path
     d="m 117,36.4 h 1"
     id="path880"
     style="fill:#a0a0a0;fill-opacity:0;stroke:#aeaeae;stroke-width:0.2;stroke-linecap:round;stroke-linejoin:round;stroke-opacity:1" />
  <circle
     cx="115"
     cy="78.142899"
     r="4.25"
     id="circle882"
     style="fill:#a0a0a0;fill-opacity:0;stroke:#aeaeae;stroke-width:0.2;stroke-linecap:round;stroke-linejoin:round;stroke-opacity:1" />
  <circle
     cx="121.9282"
     cy="116.3571"
     r="1.5"
     id="circle884"
     style="fill:#a0a0a0;fill-opacity:0;stroke:#aeaeae;stroke-width:0.2;stroke-linecap:round;stroke-linejoin:round;stroke-opacity:1" />
  <circle
     cx="115"
     cy="120.3571"
     r="4.25"
     id="circle886"
     style="fill:#a0a0a0;fill-opacity:0;stroke:#aeaeae;stroke-width:0.2;stroke-linecap:round;stroke-linejoin:round;stroke-opacity:1" />
  <circle
     cx="115"
     cy="64.071404"
     r="4.25"
     id="circle888"
     style="fill:#a0a0a0;fill-opacity:0;stroke:#aeaeae;stroke-width:0.2;stroke-linecap:round;stroke-linejoin:round;stroke-opacity:1" />
  <path
     d="M 105,35 V 163.5"
     id="path890"
     style="fill:#a0a0a0;fill-opacity:0;stroke:#aeaeae;stroke-width:0.2;stroke-linecap:round;stroke-linejoin:round;stroke-opacity:1" />
  <circle
     cx="121.9282"
     cy="130.4286"
     r="1.5"
     id="circle892"
     style="fill:#a0a0a0;fill-opacity:0;stroke:#aeaeae;stroke-width:0.2;stroke-linecap:round;stroke-linejoin:round;stroke-opacity:1" />
  <path
     d="m 112,158.9 a 1.6,1.6 0 0 0 0,3.2"
     id="path894"
     style="fill:#a0a0a0;fill-opacity:0;stroke:#aeaeae;stroke-width:0.2;stroke-linecap:round;stroke-linejoin:round;stroke-opacity:1" />
  <path
     d="m 105,163.5 h 20"
     id="path896"
     style="fill:#a0a0a0;fill-opacity:0;stroke:#aeaeae;stroke-width:0.2;stroke-linecap:round;stroke-linejoin:round;stroke-opacity:1" />
  <circle
     cx="115"
     cy="148.5"
     r="4.25"
     id="circle898"
     style="fill:#a0a0a0;fill-opacity:0;stroke:#aeaeae;stroke-width:0.2;stroke-linecap:round;stroke-linejoin:round;stroke-opacity:1" />
  <circle
     cx="121.9282"
     cy="102.2857"
     r="1.5"
     id="circle900"
     style="fill:#a0a0a0;fill-opacity:0;stroke:#aeaeae;stroke-width:0.2;stroke-linecap:round;stroke-linejoin:round;stroke-opacity:1" />
  <path
     d="m 112,158.9 h 1"
     id="path902"
     style="fill:#a0a0a0;fill-opacity:0;stroke:#aeaeae;stroke-width:0.2;stroke-linecap:round;stroke-linejoin:round;stroke-opacity:1" />
  <path
     d="m 113,162.1 a 1.6,1.6 0 0 0 0,-3.2"
     id="path904"
     style="fill:#a0a0a0;fill-opacity:0;stroke:#aeaeae;stroke-width:0.2;stroke-linecap:round;stroke-linejoin:round;stroke-opacity:1" />
  <path
     d="M 125,163.5 V 35"
     id="path906"
     style="fill:#a0a0a0;fill-opacity:0;stroke:#aeaeae;stroke-width:0.2;stroke-linecap:round;stroke-linejoin:round;stroke-opacity:1" />
  <circle
     cx="121.9282"
     cy="88.214302"
     r="1.5"
     id="circle908"
     style="fill:#a0a0a0;fill-opacity:0;stroke:#aeaeae;stroke-width:0.2;stroke-linecap:round;stroke-linejoin:round;stroke-opacity:1" />
  <circle
     cx="121.9282"
     cy="74.142899"
     r="1.5"
     id="circle910"
     style="fill:#a0a0a0;fill-opacity:0;stroke:#aeaeae;stroke-width:0.2;stroke-linecap:round;stroke-linejoin:round;stroke-opacity:1" />
  <path
     d="m 118,39.6 a 1.6,1.6 0 0 0 0,-3.2"
     id="path912"
     style="fill:#a0a0a0;fill-opacity:0;stroke:#aeaeae;stroke-width:0.2;stroke-linecap:round;stroke-linejoin:round;stroke-opacity:1" />
  <circle
     cx="115"
     cy="92.214302"
     r="4.25"
     id="circle914"
     style="fill:#a0a0a0;fill-opacity:0;stroke:#aeaeae;stroke-width:0.2;stroke-linecap:round;stroke-linejoin:round;stroke-opacity:1" />
  <path
     d="m 117,39.6 h 1"
     id="path916"
     style="fill:#a0a0a0;fill-opacity:0;stroke:#aeaeae;stroke-width:0.2;stroke-linecap:round;stroke-linejoin:round;stroke-opacity:1" />
  <path
     d="m 117,36.4 a 1.6,1.6 0 0 0 0,3.2"
     id="path918"
     style="fill:#a0a0a0;fill-opacity:0;stroke:#aeaeae;stroke-width:0.2;stroke-linecap:round;stroke-linejoin:round;stroke-opacity:1" />
  <circle
     cx="115"
     cy="50"
     r="4.25"
     id="circle920"
     style="fill:#a0a0a0;fill-opacity:0;stroke:#aeaeae;stroke-width:0.2;stroke-linecap:round;stroke-linejoin:round;stroke-opacity:1" />
  <path
     d="M 125,35 H 105"
     id="path922"
     style="fill:#a0a0a0;fill-opacity:0;stroke:#aeaeae;stroke-width:0.2;stroke-linecap:round;stroke-linejoin:round;stroke-opacity:1" />
  <path
     d="m 112,162.1 h 1"
     id="path924"
     style="fill:#a0a0a0;fill-opacity:0;stroke:#aeaeae;stroke-width:0.2;stroke-linecap:round;stroke-linejoin:round;stroke-opacity:1" />
  <circle
     cx="121.9282"
     cy="46"
     r="1.5"
     id="circle926"
     style="fill:#a0a0a0;fill-opacity:0;stroke:#aeaeae;stroke-width:0.2;stroke-linecap:round;stroke-linejoin:round;stroke-opacity:1" />
  <g
     id="g928"
     style="fill:#a0a0a0;fill-opacity:0;stroke:#aeaeae;stroke-width:0.2;stroke-linecap:round;stroke-linejoin:round;stroke-opacity:1" />
  <g
     id="g930"
     style="fill:#a0a0a0;fill-opacity:0;stroke:#aeaeae;stroke-width:0.2;stroke-linecap:round;stroke-linejoin:round;stroke-opacity:1" />
  <g
     id="g932"
     style="fill:#a0a0a0;fill-opacity:0;stroke:#aeaeae;stroke-width:0.2;stroke-linecap:round;stroke-linejoin:round;stroke-opacity:1" />
  <path
     style="fill:none;stroke:#ff0000;stroke-width:0.404193px;stroke-linecap:butt;stroke-linejoin:miter;stroke-opacity:1;marker-end:url(#marker2649)"
     d="m 98.03919,50 h 10"
     id="path10103" />
  <text
     xml:space="preserve"
     style="font-size:4.23333px;line-height:1.25;fill:#ff0000;fill-opacity:1;stroke:#ff0000;stroke-width:0.264583;stroke-miterlimit:4;stroke-dasharray:none;stroke-opacity:1"
     x="84.384079"
     y="51.578197"
     id="text10125"><tspan
       sodipodi:role="line"
       id="tspan10123"
       x="84.384079"
       y="51.578197"
       style="fill:#ff0000;fill-opacity:1;stroke:#ff0000;stroke-width:0.264583;stroke-miterlimit:4;stroke-dasharray:none;stroke-opacity:1">Clock</tspan></text>
  <path
     style="fill:none;stroke:#ff0000;stroke-width:0.404193px;stroke-linecap:butt;stroke-linejoin:miter;stroke-opacity:1;marker-end:url(#Arrow2Mend)"
     d="m 98.502933,64.307792 h 9.999997"
     id="path1913" />
  <text
     xml:space="preserve"
     style="font-size:4.23333px;line-height:1.25;fill:#ff0000;fill-opacity:1;stroke:#ff0000;stroke-width:0.264583;stroke-miterlimit:4;stroke-dasharray:none;stroke-opacity:1"
     x="84.148438"
     y="65.885986"
     id="text1917"><tspan
       sodipodi:role="line"
       id="tspan1915"
       x="84.148438"
       y="65.885986"
       style="fill:#ff0000;fill-opacity:1;stroke:#ff0000;stroke-width:0.264583;stroke-miterlimit:4;stroke-dasharray:none;stroke-opacity:1">Reset</tspan></text>
  <path
     style="fill:none;stroke:#ff0000;stroke-width:0.298196;stroke-linecap:butt;stroke-linejoin:miter;stroke-miterlimit:4;stroke-dasharray:none;stroke-opacity:1"
     d="m 103.27418,78.129419 h 5.44041"
     id="path1919" />
  <path
     style="fill:none;stroke:#ff0000;stroke-width:0.298068px;stroke-linecap:butt;stroke-linejoin:miter;stroke-opacity:1"
     d="m 103.2764,148.61929 h 5.43819"
     id="path1921" />
  <path
     style="fill:none;stroke:#ff0000;stroke-width:0.404283;stroke-linecap:butt;stroke-linejoin:miter;stroke-miterlimit:4;stroke-dasharray:none;stroke-opacity:1"
     d="M 103.47711,78.129419 V 148.61929"
     id="path1923" />
  <path
     style="fill:none;stroke:#ff0000;stroke-width:0.298196;stroke-linecap:butt;stroke-linejoin:miter;stroke-miterlimit:4;stroke-dasharray:none;stroke-opacity:1;marker-start:url(#Arrow2Mstart)"
     d="m 98.042186,113.37435 h 5.440404"
     id="path1925" />
  <text
     xml:space="preserve"
     style="font-size:4.23333px;line-height:1.25;fill:#ff0000;fill-opacity:1;stroke:#ff0000;stroke-width:0.264583;stroke-miterlimit:4;stroke-dasharray:none;stroke-opacity:1"
     x="77.101845"
     y="114.95255"
     id="text1929"><tspan
       sodipodi:role="line"
       id="tspan1927"
       x="77.101845"
       y="114.95255"
       style="fill:#ff0000;fill-opacity:1;stroke:#ff0000;stroke-width:0.264583;stroke-miterlimit:4;stroke-dasharray:none;stroke-opacity:1">Divisions</tspan></text>
</svg>
